<svg data-v-fde0c5aa="" xmlns="http://www.w3.org/2000/svg" viewBox="0 0 300 300" class="iconLeftSlogan"><!----><defs data-v-fde0c5aa=""><!----></defs><rect data-v-fde0c5aa="" fill="#D2EAF5" x="0" y="0" width="300px" height="300px" class="logo-background-square"></rect><defs data-v-fde0c5aa=""><!----></defs><g data-v-fde0c5aa="" id="79bdd834-30db-477b-b777-81608e468310" fill="#022239" transform="matrix(1.961750864982605,0,0,1.961750864982605,94.80096299021652,120.98082511966419)"><path d="M3.71 13.01L3.71 13.01Q2.24 13.01 1.46 12.50L1.46 12.50L1.46 12.50Q0.69 11.98 0.69 10.99L0.69 10.99L0.69 10.99Q0.69 10.49 1.03 10.16L1.03 10.16L1.03 10.16Q1.37 9.83 1.92 9.83L1.92 9.83L1.92 9.83Q2.24 9.84 2.41 9.99L2.41 9.99L2.41 9.99Q2.58 10.14 2.58 10.26L2.58 10.26L2.58 10.26Q2.58 10.28 2.44 10.36L2.44 10.36L2.44 10.36Q2.30 10.44 2.18 10.61L2.18 10.61L2.18 10.61Q2.07 10.78 2.07 11.07L2.07 11.07L2.07 11.07Q2.07 11.73 2.47 12.09L2.47 12.09L2.47 12.09Q2.87 12.45 3.71 12.45L3.71 12.45L3.71 12.45Q4.28 12.45 4.72 12.22L4.72 12.22L4.72 12.22Q5.15 12.00 5.38 11.63L5.38 11.63L5.38 11.63Q5.61 11.26 5.61 10.85L5.61 10.85L5.61 10.85Q5.61 10.35 5.33 9.98L5.33 9.98L5.33 9.98Q5.04 9.62 4.62 9.37L4.62 9.37L4.62 9.37Q4.20 9.13 3.47 8.81L3.47 8.81L3.47 8.81Q2.63 8.43 2.11 8.12L2.11 8.12L2.11 8.12Q1.60 7.81 1.23 7.30L1.23 7.30L1.23 7.30Q0.87 6.79 0.87 6.03L0.87 6.03L0.87 6.03Q0.87 4.82 1.70 4.21L1.70 4.21L1.70 4.21Q2.53 3.61 3.89 3.61L3.89 3.61L3.89 3.61Q4.96 3.61 5.75 4.06L5.75 4.06L5.75 4.06Q6.54 4.51 6.54 5.38L6.54 5.38L6.54 5.38Q6.54 5.88 6.20 6.21L6.20 6.21L6.20 6.21Q5.85 6.54 5.31 6.54L5.31 6.54L5.31 6.54Q4.98 6.52 4.82 6.38L4.82 6.38L4.82 6.38Q4.65 6.23 4.65 6.10L4.65 6.10L4.65 6.10Q4.65 6.09 4.84 6.01L4.84 6.01L4.84 6.01Q5.03 5.92 5.17 5.75L5.17 5.75L5.17 5.75Q5.32 5.59 5.32 5.29L5.32 5.29L5.32 5.29Q5.32 4.77 4.92 4.48L4.92 4.48L4.92 4.48Q4.52 4.19 3.91 4.19L3.91 4.19L3.91 4.19Q3.05 4.19 2.61 4.59L2.61 4.59L2.61 4.59Q2.17 4.98 2.17 5.57L2.17 5.57L2.17 5.57Q2.17 6.06 2.44 6.39L2.44 6.39L2.44 6.39Q2.70 6.72 3.29 7.04L3.29 7.04L3.29 7.04Q3.77 7.29 4.33 7.55L4.33 7.55L4.33 7.55Q5.22 7.95 5.75 8.29L5.75 8.29L5.75 8.29Q6.27 8.62 6.63 9.17L6.63 9.17L6.63 9.17Q6.99 9.72 6.99 10.53L6.99 10.53L6.99 10.53Q6.99 11.23 6.54 11.80L6.54 11.80L6.54 11.80Q6.10 12.36 5.36 12.68L5.36 12.68L5.36 12.68Q4.61 13.01 3.71 13.01L3.71 13.01ZM10.65 12.96L10.65 12.96Q9.97 12.96 9.48 12.46L9.48 12.46L9.48 12.46Q8.99 11.96 8.99 11.02L8.99 11.02L8.99 6.90L8.18 6.93L8.18 6.93Q8.09 6.93 8.04 6.85L8.04 6.85L8.04 6.85Q7.98 6.78 7.98 6.68L7.98 6.68L7.98 6.68Q7.98 6.55 8.03 6.46L8.03 6.46L8.03 6.46Q8.08 6.37 8.18 6.36L8.18 6.36L8.18 6.36Q8.67 6.26 8.94 6.04L8.94 6.04L8.94 6.04Q9.21 5.82 9.34 5.57L9.34 5.57L9.34 5.57Q9.46 5.31 9.65 4.77L9.65 4.77L9.65 4.77Q9.72 4.59 9.95 4.59L9.95 4.59L9.95 4.59Q10.05 4.59 10.15 4.64L10.15 4.64L10.15 4.64Q10.25 4.69 10.25 4.79L10.25 4.79L10.15 6.38L11.79 6.29L11.82 6.29L11.82 6.29Q12.00 6.29 12.00 6.55L12.00 6.55L12.00 6.55Q12.00 6.71 11.95 6.84L11.95 6.84L11.95 6.84Q11.90 6.97 11.83 6.97L11.83 6.97L10.26 6.93L10.26 11.19L10.26 11.19Q10.26 11.65 10.45 11.96L10.45 11.96L10.45 11.96Q10.64 12.26 11.07 12.26L11.07 12.26L11.07 12.26Q11.51 12.26 11.84 12.11L11.84 12.11L11.84 12.11Q12.03 12.04 12.07 12.04L12.07 12.04L12.07 12.04Q12.17 12.04 12.22 12.12L12.22 12.12L12.22 12.12Q12.28 12.19 12.33 12.32L12.33 12.32L12.33 12.32Q12.35 12.35 12.35 12.39L12.35 12.39L12.35 12.39Q12.35 12.45 12.26 12.52L12.26 12.52L12.26 12.52Q11.86 12.78 11.50 12.87L11.50 12.87L11.50 12.87Q11.14 12.96 10.65 12.96L10.65 12.96ZM16.30 12.89L16.30 12.89Q15.34 12.89 14.78 12.32L14.78 12.32L14.78 12.32Q14.22 11.75 14.22 10.81L14.22 10.81L14.22 8.22L14.22 8.22Q14.22 7.85 14.20 7.69L14.20 7.69L14.20 7.69Q14.18 7.52 14.03 7.39L14.03 7.39L14.03 7.39Q13.87 7.27 13.51 7.27L13.51 7.27L13.51 7.27Q13.34 7.27 13.26 7.22L13.26 7.22L13.26 7.22Q13.17 7.17 13.17 6.99L13.17 6.99L13.17 6.99Q13.17 6.90 13.23 6.83L13.23 6.83L13.23 6.83Q13.29 6.75 13.40 6.73L13.40 6.73L13.40 6.73Q14.28 6.61 14.91 6.37L14.91 6.37L14.91 6.37Q15.11 6.30 15.23 6.29L15.23 6.29L15.27 6.29L15.27 6.29Q15.50 6.29 15.50 6.55L15.50 6.55L15.50 10.79L15.50 10.79Q15.50 11.44 15.90 11.78L15.90 11.78L15.90 11.78Q16.31 12.12 16.84 12.12L16.84 12.12L16.84 12.12Q17.50 12.12 17.96 11.80L17.96 11.80L17.96 11.80Q18.42 11.48 18.58 11.16L18.58 11.16L18.58 8.22L18.58 8.22Q18.58 7.85 18.56 7.69L18.56 7.69L18.56 7.69Q18.54 7.52 18.38 7.39L18.38 7.39L18.38 7.39Q18.23 7.27 17.86 7.27L17.86 7.27L17.86 7.27Q17.70 7.27 17.61 7.22L17.61 7.22L17.61 7.22Q17.53 7.17 17.53 6.99L17.53 6.99L17.53 6.99Q17.53 6.90 17.58 6.83L17.58 6.83L17.58 6.83Q17.64 6.75 17.75 6.73L17.75 6.73L17.75 6.73Q18.63 6.61 19.26 6.37L19.26 6.37L19.26 6.37Q19.46 6.30 19.59 6.29L19.59 6.29L19.63 6.29L19.63 6.29Q19.85 6.29 19.85 6.55L19.85 6.55L19.85 11.40L19.85 11.40Q19.85 12.22 20.96 12.22L20.96 12.22L20.96 12.22Q21.20 12.22 21.20 12.49L21.20 12.49L21.20 12.49Q21.20 12.68 20.96 12.73L20.96 12.73L18.70 12.88L18.70 12.88Q18.61 12.88 18.59 12.82L18.59 12.82L18.59 12.82Q18.58 12.75 18.58 12.60L18.58 12.60L18.58 11.82L18.55 11.82L18.55 11.82Q18.14 12.19 17.89 12.40L17.89 12.40L17.89 12.40Q17.64 12.60 17.24 12.75L17.24 12.75L17.24 12.75Q16.84 12.89 16.30 12.89L16.30 12.89ZM21.97 12.77L21.97 12.77Q21.87 12.77 21.80 12.68L21.80 12.68L21.80 12.68Q21.74 12.60 21.74 12.49L21.74 12.49L21.74 12.49Q21.76 12.31 21.83 12.27L21.83 12.27L21.83 12.27Q21.90 12.24 22.08 12.24L22.08 12.24L22.08 12.24Q22.44 12.24 22.60 12.11L22.60 12.11L22.60 12.11Q22.75 11.98 22.77 11.82L22.77 11.82L22.77 11.82Q22.79 11.65 22.79 11.28L22.79 11.28L22.79 8.08L22.79 8.08Q22.79 7.71 22.77 7.55L22.77 7.55L22.77 7.55Q22.75 7.38 22.60 7.25L22.60 7.25L22.60 7.25Q22.44 7.13 22.08 7.13L22.08 7.13L22.08 7.13Q21.91 7.13 21.83 7.08L21.83 7.08L21.83 7.08Q21.74 7.03 21.74 6.85L21.74 6.85L21.74 6.85Q21.74 6.76 21.80 6.69L21.80 6.69L21.80 6.69Q21.85 6.61 21.97 6.59L21.97 6.59L21.97 6.59Q22.88 6.45 23.46 6.23L23.46 6.23L23.46 6.23Q23.70 6.16 23.79 6.15L23.79 6.15L23.83 6.15L23.83 6.15Q24.05 6.15 24.05 6.41L24.05 6.41L24.05 7.28L24.09 7.28L24.09 7.28Q24.58 6.79 25.09 6.50L25.09 6.50L25.09 6.50Q25.59 6.22 26.00 6.22L26.00 6.22L26.00 6.22Q26.46 6.22 26.73 6.56L26.73 6.56L26.73 6.56Q27.01 6.90 27.01 7.35L27.01 7.35L27.01 7.35Q27.01 7.74 26.77 8.05L26.77 8.05L26.77 8.05Q26.53 8.36 26.11 8.36L26.11 8.36L26.11 8.36Q25.91 8.36 25.77 8.27L25.77 8.27L25.77 8.27Q25.62 8.19 25.61 8.13L25.61 8.13L25.61 8.13Q25.62 8.11 25.75 7.96L25.75 7.96L25.75 7.96Q25.87 7.81 25.87 7.62L25.87 7.62L25.87 7.62Q25.87 7.36 25.74 7.21L25.74 7.21L25.74 7.21Q25.61 7.06 25.38 7.06L25.38 7.06L25.38 7.06Q25.14 7.06 24.78 7.29L24.78 7.29L24.78 7.29Q24.42 7.52 24.07 7.87L24.07 7.87L24.07 11.28L24.07 11.28Q24.07 11.65 24.09 11.82L24.09 11.82L24.09 11.82Q24.12 11.98 24.28 12.11L24.28 12.11L24.28 12.11Q24.43 12.24 24.79 12.24L24.79 12.24L24.88 12.24L24.88 12.24Q24.99 12.24 25.05 12.28L25.05 12.28L25.05 12.28Q25.10 12.32 25.12 12.49L25.12 12.49L25.12 12.49Q25.12 12.60 25.06 12.68L25.06 12.68L25.06 12.68Q25.00 12.77 24.89 12.77L24.89 12.77L24.89 12.77Q24.08 12.73 23.42 12.73L23.42 12.73L23.42 12.73Q22.79 12.73 21.97 12.77L21.97 12.77ZM30.56 15.78L30.56 15.78Q27.61 15.78 27.61 14.10L27.61 14.10L27.61 14.10Q27.61 13.62 27.91 13.27L27.91 13.27L27.91 13.27Q28.21 12.92 28.69 12.92L28.69 12.92L28.69 12.92Q28.88 12.92 29.05 13.00L29.05 13.00L29.05 13.00Q29.22 13.08 29.32 13.18L29.32 13.18L29.32 13.18Q29.43 13.29 29.43 13.34L29.43 13.34L29.43 13.34Q29.43 13.36 29.31 13.48L29.31 13.48L29.31 13.48Q29.19 13.59 29.10 13.77L29.10 13.77L29.10 13.77Q29.01 13.94 29.01 14.18L29.01 14.18L29.01 14.18Q29.01 15.26 30.86 15.26L30.86 15.26L30.86 15.26Q31.92 15.26 32.49 14.89L32.49 14.89L32.49 14.89Q33.07 14.52 33.07 13.79L33.07 13.79L33.07 13.79Q33.07 13.34 32.73 13.12L32.73 13.12L32.73 13.12Q32.40 12.89 31.89 12.83L31.89 12.83L31.89 12.83Q31.39 12.77 30.58 12.75L30.58 12.75L30.58 12.75Q29.58 12.73 29.16 12.66L29.16 12.66L29.16 12.66Q28.62 12.56 28.32 12.31L28.32 12.31L28.32 12.31Q28.01 12.05 28.01 11.52L28.01 11.52L28.01 11.52Q28.01 10.98 28.40 10.61L28.40 10.61L28.40 10.61Q28.78 10.23 29.50 10.23L29.50 10.23L29.50 10.23Q28.67 9.91 28.34 9.43L28.34 9.43L28.34 9.43Q28 8.95 28 8.34L28 8.34L28 8.34Q28 7.74 28.34 7.25L28.34 7.25L28.34 7.25Q28.69 6.76 29.30 6.48L29.30 6.48L29.30 6.48Q29.92 6.20 30.70 6.20L30.70 6.20L30.70 6.20Q31.71 6.20 32.26 6.48L32.26 6.48L34.17 6.12L34.20 6.12L34.20 6.12Q34.44 6.12 34.44 6.45L34.44 6.45L34.44 6.45Q34.44 6.65 34.38 6.82L34.38 6.82L34.38 6.82Q34.31 6.99 34.23 6.99L34.23 6.99L32.84 6.93L32.84 6.96L32.84 6.96Q33.08 7.20 33.25 7.59L33.25 7.59L33.25 7.59Q33.42 7.98 33.42 8.33L33.42 8.33L33.42 8.33Q33.42 8.97 33.05 9.47L33.05 9.47L33.05 9.47Q32.68 9.97 32.07 10.23L32.07 10.23L32.07 10.23Q31.47 10.50 30.81 10.50L30.81 10.50L30.20 10.50L30.20 10.50Q29.47 10.50 29.14 10.64L29.14 10.64L29.14 10.64Q28.81 10.78 28.81 11.10L28.81 11.10L28.81 11.10Q28.81 11.37 28.99 11.49L28.99 11.49L28.99 11.49Q29.18 11.62 29.62 11.65L29.62 11.65L31.54 11.72L31.54 11.72Q33.01 11.77 33.66 12.19L33.66 12.19L33.66 12.19Q34.31 12.60 34.31 13.44L34.31 13.44L34.31 13.44Q34.31 14.53 33.29 15.16L33.29 15.16L33.29 15.16Q32.27 15.78 30.56 15.78L30.56 15.78ZM30.70 10.09L30.70 10.09Q31.36 10.09 31.76 9.63L31.76 9.63L31.76 9.63Q32.16 9.16 32.16 8.33L32.16 8.33L32.16 8.33Q32.16 7.56 31.75 7.10L31.75 7.10L31.75 7.10Q31.33 6.64 30.69 6.64L30.69 6.64L30.69 6.64Q30.06 6.64 29.65 7.08L29.65 7.08L29.65 7.08Q29.25 7.53 29.25 8.30L29.25 8.30L29.25 8.30Q29.25 9.14 29.65 9.62L29.65 9.62L29.65 9.62Q30.06 10.09 30.70 10.09L30.70 10.09ZM38.40 12.89L38.40 12.89Q37.35 12.89 36.62 12.45L36.62 12.45L36.62 12.45Q35.88 12.00 35.50 11.23L35.50 11.23L35.50 11.23Q35.13 10.46 35.13 9.52L35.13 9.52L35.13 9.52Q35.13 8.69 35.51 7.93L35.51 7.93L35.51 7.93Q35.90 7.17 36.61 6.69L36.61 6.69L36.61 6.69Q37.32 6.22 38.25 6.22L38.25 6.22L38.25 6.22Q39.49 6.22 40.17 6.85L40.17 6.85L40.17 6.85Q40.84 7.49 40.94 8.57L40.94 8.57L40.94 8.57Q40.94 9.03 40.68 9.20L40.68 9.20L40.68 9.20Q40.43 9.37 39.96 9.37L39.96 9.37L36.55 9.37L36.55 9.37Q36.55 10.67 37.09 11.43L37.09 11.43L37.09 11.43Q37.63 12.19 38.77 12.19L38.77 12.19L38.77 12.19Q39.37 12.19 39.79 11.94L39.79 11.94L39.79 11.94Q40.21 11.68 40.59 11.06L40.59 11.06L40.59 11.06Q40.66 10.99 40.73 10.99L40.73 10.99L40.73 10.99Q40.82 10.99 40.89 11.05L40.89 11.05L40.89 11.05Q41.03 11.13 41.03 11.30L41.03 11.30L41.03 11.30Q41.03 11.38 41.01 11.42L41.01 11.42L41.01 11.42Q40.57 12.12 39.91 12.51L39.91 12.51L39.91 12.51Q39.24 12.89 38.40 12.89L38.40 12.89ZM36.55 8.83L38.84 8.83L38.84 8.83Q39.55 8.83 39.59 8.25L39.59 8.25L39.59 8.25Q39.59 7.60 39.24 7.15L39.24 7.15L39.24 7.15Q38.89 6.71 38.25 6.71L38.25 6.71L38.25 6.71Q37.53 6.71 37.07 7.27L37.07 7.27L37.07 7.27Q36.61 7.84 36.55 8.83L36.55 8.83ZM45.42 12.89L45.42 12.89Q44.46 12.89 43.72 12.44L43.72 12.44L43.72 12.44Q42.98 11.98 42.57 11.24L42.57 11.24L42.57 11.24Q42.15 10.49 42.15 9.65L42.15 9.65L42.15 9.65Q42.15 8.60 42.64 7.82L42.64 7.82L42.64 7.82Q43.13 7.04 43.89 6.63L43.89 6.63L43.89 6.63Q44.65 6.22 45.42 6.22L45.42 6.22L45.42 6.22Q46.37 6.22 47.11 6.67L47.11 6.67L47.11 6.67Q47.85 7.13 48.27 7.88L48.27 7.88L48.27 7.88Q48.68 8.62 48.68 9.46L48.68 9.46L48.68 9.46Q48.68 10.51 48.18 11.29L48.18 11.29L48.18 11.29Q47.68 12.07 46.93 12.48L46.93 12.48L46.93 12.48Q46.17 12.89 45.42 12.89L45.42 12.89ZM45.42 12.38L45.42 12.38Q46.37 12.38 46.81 11.56L46.81 11.56L46.81 11.56Q47.25 10.75 47.25 9.46L47.25 9.46L47.25 9.46Q47.25 8.26 46.80 7.50L46.80 7.50L46.80 7.50Q46.34 6.73 45.42 6.73L45.42 6.73L45.42 6.73Q44.45 6.73 44.02 7.53L44.02 7.53L44.02 7.53Q43.58 8.33 43.58 9.62L43.58 9.62L43.58 9.62Q43.58 10.82 44.03 11.60L44.03 11.60L44.03 11.60Q44.48 12.38 45.42 12.38L45.42 12.38ZM49.94 12.77L49.94 12.77Q49.84 12.77 49.78 12.68L49.78 12.68L49.78 12.68Q49.71 12.60 49.71 12.49L49.71 12.49L49.71 12.49Q49.73 12.31 49.80 12.27L49.80 12.27L49.80 12.27Q49.87 12.24 50.05 12.24L50.05 12.24L50.05 12.24Q50.41 12.24 50.57 12.11L50.57 12.11L50.57 12.11Q50.72 11.98 50.74 11.82L50.74 11.82L50.74 11.82Q50.76 11.65 50.76 11.28L50.76 11.28L50.76 8.08L50.76 8.08Q50.76 7.71 50.74 7.55L50.74 7.55L50.74 7.55Q50.72 7.38 50.57 7.25L50.57 7.25L50.57 7.25Q50.41 7.13 50.05 7.13L50.05 7.13L50.05 7.13Q49.88 7.13 49.80 7.08L49.80 7.08L49.80 7.08Q49.71 7.03 49.71 6.85L49.71 6.85L49.71 6.85Q49.71 6.76 49.77 6.69L49.77 6.69L49.77 6.69Q49.83 6.61 49.94 6.59L49.94 6.59L49.94 6.59Q50.85 6.45 51.44 6.23L51.44 6.23L51.44 6.23Q51.67 6.16 51.76 6.15L51.76 6.15L51.80 6.15L51.80 6.15Q52.02 6.15 52.02 6.41L52.02 6.41L52.02 7.29L52.07 7.29L52.07 7.29Q52.47 6.92 52.72 6.71L52.72 6.71L52.72 6.71Q52.98 6.51 53.37 6.36L53.37 6.36L53.37 6.36Q53.77 6.22 54.32 6.22L54.32 6.22L54.32 6.22Q55.27 6.22 55.83 6.79L55.83 6.79L55.83 6.79Q56.39 7.36 56.39 8.30L56.39 8.30L56.39 11.28L56.39 11.28Q56.39 11.65 56.42 11.82L56.42 11.82L56.42 11.82Q56.45 11.98 56.60 12.11L56.60 12.11L56.60 12.11Q56.76 12.24 57.12 12.24L57.12 12.24L57.20 12.24L57.20 12.24Q57.32 12.24 57.37 12.28L57.37 12.28L57.37 12.28Q57.43 12.32 57.44 12.49L57.44 12.49L57.44 12.49Q57.44 12.60 57.38 12.68L57.38 12.68L57.38 12.68Q57.32 12.77 57.22 12.77L57.22 12.77L57.22 12.77Q56.41 12.73 55.75 12.73L55.75 12.73L55.75 12.73Q55.12 12.73 54.29 12.77L54.29 12.77L54.29 12.77Q54.19 12.77 54.13 12.68L54.13 12.68L54.13 12.68Q54.07 12.60 54.07 12.49L54.07 12.49L54.07 12.49Q54.08 12.31 54.14 12.27L54.14 12.27L54.14 12.27Q54.21 12.24 54.39 12.24L54.39 12.24L54.39 12.24Q54.75 12.24 54.91 12.11L54.91 12.11L54.91 12.11Q55.06 11.98 55.09 11.82L55.09 11.82L55.09 11.82Q55.12 11.65 55.12 11.28L55.12 11.28L55.12 8.32L55.12 8.32Q55.12 7.67 54.71 7.33L54.71 7.33L54.71 7.33Q54.31 6.99 53.77 6.99L53.77 6.99L53.77 6.99Q53.13 6.99 52.67 7.30L52.67 7.30L52.67 7.30Q52.21 7.62 52.04 7.95L52.04 7.95L52.04 11.28L52.04 11.28Q52.04 11.65 52.07 11.82L52.07 11.82L52.07 11.82Q52.09 11.98 52.25 12.11L52.25 12.11L52.25 12.11Q52.40 12.24 52.77 12.24L52.77 12.24L52.85 12.24L52.85 12.24Q52.96 12.24 53.02 12.28L53.02 12.28L53.02 12.28Q53.07 12.32 53.09 12.49L53.09 12.49L53.09 12.49Q53.09 12.60 53.03 12.68L53.03 12.68L53.03 12.68Q52.98 12.77 52.86 12.77L52.86 12.77L52.86 12.77Q52.05 12.73 51.39 12.73L51.39 12.73L51.39 12.73Q50.76 12.73 49.94 12.77L49.94 12.77ZM61.60 12.77L61.60 12.77Q61.47 12.77 61.41 12.68L61.41 12.68L61.41 12.68Q61.35 12.59 61.35 12.46L61.35 12.46L61.35 12.46Q61.36 12.25 61.43 12.21L61.43 12.21L61.43 12.21Q61.50 12.17 61.70 12.17L61.70 12.17L61.70 12.17Q62.10 12.17 62.30 12.02L62.30 12.02L62.30 12.02Q62.50 11.87 62.55 11.66L62.55 11.66L62.55 11.66Q62.59 11.44 62.61 11.09L62.61 11.09L62.61 5.53L62.61 5.53Q62.59 5.18 62.55 4.96L62.55 4.96L62.55 4.96Q62.50 4.75 62.30 4.60L62.30 4.60L62.30 4.60Q62.10 4.45 61.70 4.45L61.70 4.45L61.61 4.45L61.61 4.45Q61.47 4.45 61.42 4.40L61.42 4.40L61.42 4.40Q61.36 4.35 61.35 4.16L61.35 4.16L61.35 4.16Q61.35 4.03 61.41 3.94L61.41 3.94L61.41 3.94Q61.47 3.85 61.60 3.85L61.60 3.85L61.60 3.85Q62.51 3.89 63.25 3.89L63.25 3.89L65.23 3.89L65.23 3.89Q66.00 3.89 66.47 4.00L66.47 4.00L66.47 4.00Q66.95 4.12 67.33 4.35L67.33 4.35L67.33 4.35Q67.69 4.59 67.90 5.01L67.90 5.01L67.90 5.01Q68.11 5.42 68.11 5.91L68.11 5.91L68.11 5.91Q68.11 6.78 67.54 7.29L67.54 7.29L67.54 7.29Q66.98 7.80 66.22 7.98L66.22 7.98L66.22 8.02L66.22 8.02Q66.95 8.02 67.54 8.31L67.54 8.31L67.54 8.31Q68.14 8.60 68.47 9.08L68.47 9.08L68.47 9.08Q68.80 9.56 68.80 10.12L68.80 10.12L68.80 10.12Q68.80 11.07 68.22 11.66L68.22 11.66L68.22 11.66Q67.63 12.25 66.76 12.50L66.76 12.50L66.76 12.50Q65.88 12.74 64.95 12.74L64.95 12.74L63.27 12.73L63.27 12.73Q62.51 12.73 61.60 12.77L61.60 12.77ZM63.99 7.74L64.58 7.74L64.58 7.74Q65.14 7.74 65.55 7.66L65.55 7.66L65.55 7.66Q65.97 7.57 66.29 7.21L66.29 7.21L66.29 7.21Q66.61 6.85 66.61 6.08L66.61 6.08L66.61 6.08Q66.61 4.41 64.97 4.41L64.97 4.41L63.99 4.41L63.99 7.74ZM65.00 12.18L65.00 12.18Q66.04 12.17 66.66 11.67L66.66 11.67L66.66 11.67Q67.28 11.17 67.28 10.04L67.28 10.04L67.28 10.04Q67.21 9.28 66.58 8.79L66.58 8.79L66.58 8.79Q65.94 8.30 64.57 8.30L64.57 8.30L63.99 8.30L63.99 11.09L63.99 11.09Q63.99 11.56 64.08 11.80L64.08 11.80L64.08 11.80Q64.18 12.03 64.38 12.10L64.38 12.10L64.38 12.10Q64.58 12.18 65.00 12.18L65.00 12.18ZM71.81 12.89L71.81 12.89Q70.97 12.89 70.45 12.42L70.45 12.42L70.45 12.42Q69.93 11.94 69.93 11.23L69.93 11.23L69.93 11.23Q69.93 10.35 70.52 9.91L70.52 9.91L70.52 9.91Q71.11 9.46 71.92 9.33L71.92 9.33L71.92 9.33Q72.73 9.20 74.02 9.13L74.02 9.13L74.02 8.02L74.02 8.02Q74.02 7.34 73.67 6.98L73.67 6.98L73.67 6.98Q73.33 6.62 72.58 6.62L72.58 6.62L72.58 6.62Q72.14 6.62 71.82 6.89L71.82 6.89L71.82 6.89Q71.50 7.15 71.50 7.60L71.50 7.60L71.50 7.60Q71.50 7.83 71.60 7.97L71.60 7.97L71.60 7.97Q71.71 8.12 71.83 8.22L71.83 8.22L71.83 8.22Q71.95 8.32 71.95 8.33L71.95 8.33L71.95 8.33Q71.95 8.41 71.77 8.55L71.77 8.55L71.77 8.55Q71.60 8.68 71.34 8.68L71.34 8.68L71.34 8.68Q70.92 8.68 70.68 8.37L70.68 8.37L70.68 8.37Q70.43 8.06 70.43 7.64L70.43 7.64L70.43 7.64Q70.43 6.92 71.08 6.57L71.08 6.57L71.08 6.57Q71.74 6.22 72.66 6.22L72.66 6.22L72.66 6.22Q73.81 6.22 74.53 6.65L74.53 6.65L74.53 6.65Q75.25 7.08 75.25 8.26L75.25 8.26L75.25 11.52L75.25 11.52Q75.26 11.82 75.43 12.08L75.43 12.08L75.43 12.08Q75.60 12.35 75.98 12.35L75.98 12.35L75.98 12.35Q76.09 12.35 76.14 12.39L76.14 12.39L76.14 12.39Q76.19 12.43 76.19 12.57L76.19 12.57L76.19 12.57Q76.19 12.74 75.93 12.82L75.93 12.82L75.93 12.82Q75.67 12.89 75.42 12.89L75.42 12.89L75.42 12.89Q74.89 12.89 74.48 12.59L74.48 12.59L74.48 12.59Q74.07 12.28 74.02 11.76L74.02 11.76L74.02 11.76Q73.72 12.31 73.11 12.60L73.11 12.60L73.11 12.60Q72.51 12.89 71.81 12.89L71.81 12.89ZM72.25 12.14L72.25 12.14Q72.73 12.14 73.14 11.90L73.14 11.90L73.14 11.90Q73.54 11.66 73.78 11.25L73.78 11.25L73.78 11.25Q74.02 10.84 74.02 10.33L74.02 10.33L74.02 9.53L74.02 9.53Q72.55 9.65 71.95 10.01L71.95 10.01L71.95 10.01Q71.34 10.37 71.34 11.19L71.34 11.19L71.34 11.19Q71.34 12.14 72.25 12.14L72.25 12.14ZM77.81 15.78L77.81 15.78Q77.21 15.78 76.74 15.39L76.74 15.39L76.74 15.39Q76.27 15.01 76.27 14.48L76.27 14.48L76.27 14.48Q76.27 13.85 76.62 13.67L76.62 13.67L76.62 13.67Q76.97 13.50 77.17 13.50L77.17 13.50L77.17 13.50Q77.41 13.50 77.56 13.59L77.56 13.59L77.56 13.59Q77.71 13.69 77.71 13.78L77.71 13.78L77.71 13.78Q77.71 13.80 77.60 13.92L77.60 13.92L77.60 13.92Q77.49 14.03 77.49 14.31L77.49 14.31L77.49 14.31Q77.49 14.59 77.66 14.80L77.66 14.80L77.66 14.80Q77.84 15.01 78.16 15.01L78.16 15.01L78.16 15.01Q79.04 15.01 79.88 13.20L79.88 13.20L79.88 13.20Q79.94 13.01 79.94 12.91L79.94 12.91L79.94 12.91Q79.94 12.77 79.87 12.56L79.87 12.56L79.87 12.56Q79.59 11.93 78.93 10.22L78.93 10.22L78.93 10.22Q78.36 8.69 77.99 7.90L77.99 7.90L77.99 7.90Q77.76 7.35 77.55 7.15L77.55 7.15L77.55 7.15Q77.34 6.94 76.93 6.89L76.93 6.89L76.93 6.89Q76.89 6.87 76.78 6.86L76.78 6.86L76.78 6.86Q76.66 6.85 76.64 6.79L76.64 6.79L76.64 6.79Q76.61 6.73 76.61 6.59L76.61 6.59L76.61 6.59Q76.61 6.43 76.70 6.38L76.70 6.38L76.70 6.38Q76.79 6.34 76.92 6.34L76.92 6.34L76.92 6.34Q77.06 6.33 77.10 6.33L77.10 6.33L77.10 6.33Q77.95 6.29 78.44 6.57L78.44 6.57L78.44 6.57Q78.93 6.86 79.25 7.57L79.25 7.57L79.25 7.57Q79.56 8.29 79.80 8.93L79.80 8.93L79.80 8.93Q80.36 10.44 80.71 11.14L80.71 11.14L80.75 11.14L82.12 7.48L82.12 7.48Q82.19 7.24 82.19 7.14L82.19 7.14L82.19 7.14Q82.19 6.99 82.05 6.93L82.05 6.93L82.05 6.93Q81.91 6.87 81.59 6.87L81.59 6.87L81.51 6.87L81.51 6.87Q81.40 6.87 81.35 6.83L81.35 6.83L81.35 6.83Q81.30 6.79 81.28 6.62L81.28 6.62L81.28 6.62Q81.28 6.52 81.33 6.43L81.33 6.43L81.33 6.43Q81.38 6.34 81.48 6.34L81.48 6.34L81.48 6.34Q82.28 6.38 82.84 6.38L82.84 6.38L82.84 6.38Q83.06 6.38 83.71 6.36L83.71 6.36L84.00 6.34L84.00 6.34Q84.10 6.34 84.15 6.43L84.15 6.43L84.15 6.43Q84.21 6.52 84.21 6.62L84.21 6.62L84.21 6.62Q84.20 6.79 84.14 6.83L84.14 6.83L84.14 6.83Q84.08 6.87 83.97 6.87L83.97 6.87L83.97 6.87Q83.45 6.87 83.17 7.04L83.17 7.04L83.17 7.04Q82.89 7.21 82.70 7.70L82.70 7.70L82.70 7.70Q82.38 8.50 81.66 10.26L81.66 10.26L81.66 10.26Q80.95 12.03 80.60 12.87L80.60 12.87L80.60 12.87Q80.09 14.07 79.42 14.92L79.42 14.92L79.42 14.92Q78.75 15.78 77.81 15.78L77.81 15.78Z"></path></g><defs data-v-fde0c5aa=""><linearGradient data-v-fde0c5aa="" gradientTransform="rotate(25)" id="6526351b-7324-41ab-b517-58090924b6c6" x1="0%" y1="0%" x2="100%" y2="0%"><stop data-v-fde0c5aa="" offset="0%" stop-color="#000A68" stop-opacity="1"></stop><stop data-v-fde0c5aa="" offset="100%" stop-color="#00C4EE" stop-opacity="1"></stop></linearGradient></defs><g data-v-fde0c5aa="" id="8dab36b6-6012-4ae1-be52-6bd2947f5f2c" stroke="none" fill="url(#6526351b-7324-41ab-b517-58090924b6c6)" transform="matrix(0.4988791346549988,0,0,0.4988791346549988,36.7582904699802,125.03876172326656)"><g clip-rule="evenodd"><path d="M30.143 5.661c-.003.68.231 1.246.703 1.698a5.347 5.347 0 0 0 1.729 1.083c.682.271 1.382.46 2.113.573.728.112 1.348.17 1.858.172a7.026 7.026 0 0 0 1.807-.231 26.183 26.183 0 0 0 1.753-.521 27.879 27.879 0 0 1 1.733-.522 6.802 6.802 0 0 1 1.787-.229c.827.002 1.623.085 2.389.246a11.7 11.7 0 0 0 2.386.248l.029-7.002c-.001-.024-.05-.08-.146-.166a5.366 5.366 0 0 1-.218-.201c-.338-.243-.757-.427-1.257-.553a5.642 5.642 0 0 0-1.293-.187c-.923-.003-1.732.168-2.427.52-.695.349-1.353.765-1.976 1.249-.621.485-1.249.969-1.885 1.452a7.35 7.35 0 0 1-2.118 1.122 8.733 8.733 0 0 1-1.606.396c-.51.07-1.033.105-1.567.103-.51 0-1.045-.016-1.605-.042a55.768 55.768 0 0 1-1.785-.117c-.218.048-.342.168-.365.363a3.95 3.95 0 0 0-.039.546zM58.102 54.781a144.014 144.014 0 0 1-.347 9.391 46.435 46.435 0 0 1-1.585 9.238 28.185 28.185 0 0 1-.942 2.748 90.211 90.211 0 0 0-1.013 2.639 26.67 26.67 0 0 0-.813 2.659 12.4 12.4 0 0 0-.341 2.88l.877.004a154.2 154.2 0 0 1 3.604-3.305 34.06 34.06 0 0 1 3.969-3.028 22.766 22.766 0 0 1 4.387-2.227 13.552 13.552 0 0 1 4.852-.856c1.119.006 2.238.145 3.354.416 1.117.272 2.208.635 3.277 1.09 1.068.452 2.094.991 3.075 1.613a19.34 19.34 0 0 1 2.672 2.036c.05.001.17.007.365.021.194.012.316.019.364.017.073.002.165.007.272.021.11.013.22.007.328-.018a.87.87 0 0 0 .313-.129.402.402 0 0 0 .184-.27c.097-.535.174-1.004.223-1.404.052-.399.09-.783.113-1.147.028-.363.048-.729.06-1.095a38.993 38.993 0 0 0-.587-8.243 46.536 46.536 0 0 0-1.778-6.881 51.838 51.838 0 0 0-2.763-6.574 55.393 55.393 0 0 0-3.534-6.051L58.924 22.001l-5.806-6.951c-.147-.171-.376-.288-.693-.35a4.093 4.093 0 0 0-.768-.093l-.009 2.626a296.352 296.352 0 0 1 2.516 9.235 145.075 145.075 0 0 1 2.063 9.326 124.318 124.318 0 0 1 1.385 9.433c.337 3.161.501 6.345.49 9.554zM37.528 84.274c.218.197.417.313.601.349.182.037.405.059.675.06.17-.001.351-.01.545-.034.195-.024.317-.145.366-.364-.02-.779-.035-1.986-.04-3.627-.007-1.643-.011-3.49-.014-5.543-.005-2.055-.002-4.227.008-6.513a1349.078 1349.078 0 0 1 .102-12.05c.018-1.642.041-2.854.069-3.626.001-.342.039-1.062.117-2.154.076-1.092.174-2.363.288-3.808.117-1.446.23-2.99.348-4.631.115-1.64.23-3.185.347-4.63.113-1.447.212-2.709.288-3.791s.13-1.793.153-2.132l.002-.292c0-.17.007-.354.021-.547.01-.195.021-.39.019-.583.004-.195.003-.354.003-.476.001-.095.015-.284.039-.563.025-.282.026-.566.003-.858a1.862 1.862 0 0 0-.215-.768c-.122-.219-.314-.328-.582-.331-.269.001-.48.054-.64.162-.157.109-.311.308-.458.599A214.843 214.843 0 0 1 30.4 46.558a292.057 292.057 0 0 1-10.662 17.59c-.195.266-.531.71-1.008 1.326-.477.62-.991 1.271-1.54 1.963L15.633 69.4c-.488.62-.83 1.051-1.026 1.293-.27.339-.727.751-1.373 1.234-.645.482-1.304.99-1.975 1.524a17.73 17.73 0 0 0-1.775 1.597c-.512.532-.77 1.017-.771 1.457-.002.511.253.767.764.768.364.002.697-.067 1.004-.216.303-.144.596-.318.875-.524.28-.206.569-.412.86-.615.292-.208.599-.37.915-.49a16.943 16.943 0 0 1 3.101-.861 18.884 18.884 0 0 1 3.212-.245c1.87.009 3.646.276 5.319.807a22.428 22.428 0 0 1 4.771 2.134 26.648 26.648 0 0 1 4.255 3.151 42.432 42.432 0 0 1 3.739 3.86z"></path><path d="M6.498 82.986c-.002.804.203 1.41.614 1.826.412.415.914.745 1.508.991.596.243 1.232.473 1.914.682.681.209 1.286.51 1.818.9a6.956 6.956 0 0 1 1.524 1.593c.412.597.805 1.214 1.181 1.846.373.635.767 1.256 1.178 1.863.411.611.931 1.16 1.561 1.649 1.188.952 2.563 1.747 4.129 2.387a33.898 33.898 0 0 0 5.01 1.586c1.772.422 3.601.744 5.483.971 1.884.228 3.741.392 5.578.496 1.834.104 3.603.167 5.304.184 1.704.021 3.259.033 4.669.039 4.085.016 8.12-.113 12.109-.391 3.987-.277 8.001-.746 12.039-1.411a7.21 7.21 0 0 0 3.177-1.302 13.595 13.595 0 0 0 2.509-2.379 24.18 24.18 0 0 0 2.034-2.889 91.303 91.303 0 0 1 1.797-2.876.937.937 0 0 1 .165-.198.811.811 0 0 1 .203-.163l10.229-4.7c.315-.146.524-.299.624-.455.097-.156.145-.369.146-.638.002-.313-.083-.523-.251-.621-.172-.098-.401-.146-.693-.149-.049-.001-.141.006-.274.016-.135.016-.225.019-.272.022-6.668 2.134-13.338 3.757-20.004 4.86-6.663 1.104-13.487 1.642-20.463 1.614a209.438 209.438 0 0 1-11.104-.335c-3.66-.208-7.292-.569-10.901-1.08a110.792 110.792 0 0 1-10.766-2.087 93.05 93.05 0 0 1-10.637-3.306 3.03 3.03 0 0 1-.163-.017 1.074 1.074 0 0 0-.2-.021c-.462 0-.704.155-.731.473a14.33 14.33 0 0 0-.044 1.02z"></path><path d="M47 83.972C47 84.54 46.553 85 46 85c-.553 0-1-.46-1-1.028V13.028c0-.568.447-1.028 1-1.028.553 0 1 .46 1 1.028v70.944z"></path></g></g><defs data-v-fde0c5aa=""><!----></defs><g data-v-fde0c5aa="" id="f06c0b10-770f-420d-b8f1-638d8a1f6266" fill="#022239" transform="matrix(0.5484182834625244,0,0,0.5484182834625244,89.39805827555767,159.31033086466786)"><path d="M12.32 12.43L12.32 12.43L12.32 12.43Q12.32 11.45 12.55 10.51L12.55 10.51L12.55 10.51Q12.78 9.56 13.20 8.71L13.20 8.71L13.20 8.71Q13.62 7.87 14.20 7.16L14.20 7.16L14.20 7.16Q14.78 6.45 15.48 5.94L15.48 5.94L15.48 5.94Q16.17 5.42 16.95 5.13L16.95 5.13L16.95 5.13Q17.74 4.84 18.56 4.84L18.56 4.84L18.56 4.84Q19.53 4.84 20.07 5.25L20.07 5.25L20.07 5.25Q20.61 5.66 20.61 6.38L20.61 6.38L20.61 6.38Q20.61 6.66 20.53 6.96L20.53 6.96L20.53 6.96Q20.45 7.25 20.31 7.54L20.31 7.54L20.31 7.54Q20.16 7.83 19.96 8.09L19.96 8.09L19.96 8.09Q19.77 8.36 19.53 8.55L19.53 8.55L19.53 8.55Q19.17 8.50 18.90 8.22L18.90 8.22L18.90 8.22Q18.63 7.95 18.56 7.59L18.56 7.59L18.56 7.59Q19.05 7.18 19.34 6.74L19.34 6.74L19.34 6.74Q19.63 6.30 19.63 5.94L19.63 5.94L19.63 5.94Q19.63 5.32 18.86 5.32L18.86 5.32L18.86 5.32Q18.54 5.32 18.19 5.45L18.19 5.45L18.19 5.45Q17.85 5.59 17.50 5.82L17.50 5.82L17.50 5.82Q17.15 6.06 16.82 6.40L16.82 6.40L16.82 6.40Q16.49 6.73 16.21 7.14L16.21 7.14L16.21 7.14Q14.27 9.94 14.27 12.87L14.27 12.87L14.27 12.87Q14.27 13.90 14.59 14.53L14.59 14.53L14.59 14.53Q14.91 15.16 15.44 15.27L15.44 15.27L15.44 15.27Q16.04 15.13 16.97 14.50L16.97 14.50L16.97 14.50Q17.89 13.87 18.98 12.87L18.98 12.87L18.98 12.87Q19.12 13.01 19.15 13.16L19.15 13.16L19.15 13.16Q18.75 13.69 18.31 14.18L18.31 14.18L18.31 14.18Q17.88 14.67 17.45 15.08L17.45 15.08L17.45 15.08Q17.02 15.48 16.61 15.79L16.61 15.79L16.61 15.79Q16.20 16.10 15.85 16.27L15.85 16.27L15.85 16.27Q14.11 16.24 13.22 15.27L13.22 15.27L13.22 15.27Q12.32 14.31 12.32 12.43ZM32.66 14.36L32.66 14.36L32.66 14.36Q32.66 13.78 32.86 12.85L32.86 12.85L32.86 12.85Q33.05 11.93 33.38 10.88L33.38 10.88L33.38 10.88Q32.45 10.95 31.52 11.06L31.52 11.06L31.52 11.06Q30.59 11.17 29.90 11.19L29.90 11.19L29.90 11.19Q29.27 12.66 28.90 13.89L28.90 13.89L28.90 13.89Q28.53 15.13 28.32 16.31L28.32 16.31L28.32 16.31Q27.79 16.18 27.44 15.87L27.44 15.87L27.44 15.87Q27.09 15.55 26.80 15.08L26.80 15.08L26.80 15.08Q26.91 14.85 27.05 14.50L27.05 14.50L27.05 14.50Q27.20 14.15 27.41 13.66L27.41 13.66L27.41 13.66Q27.61 13.16 27.87 12.50L27.87 12.50L27.87 12.50Q28.13 11.83 28.46 10.95L28.46 10.95L28.46 10.95Q28 10.75 27.85 10.40L27.85 10.40L27.85 10.40Q27.92 10.35 28.16 10.28L28.16 10.28L28.16 10.28Q28.41 10.22 28.77 10.15L28.77 10.15L28.95 9.70L28.95 9.70Q29.25 8.95 29.44 8.43L29.44 8.43L29.44 8.43Q29.62 7.91 29.76 7.41L29.76 7.41L29.76 7.41Q29.89 6.92 30.01 6.31L30.01 6.31L30.01 6.31Q30.13 5.71 30.30 4.79L30.30 4.79L30.30 4.79Q30.88 4.90 31.37 5.31L31.37 5.31L31.37 5.31Q31.85 5.71 32.20 6.29L32.20 6.29L32.20 6.29Q32.07 6.45 31.89 6.79L31.89 6.79L31.89 6.79Q31.71 7.13 31.49 7.59L31.49 7.59L31.49 7.59Q31.28 8.06 31.02 8.64L31.02 8.64L31.02 8.64Q30.77 9.23 30.48 9.87L30.48 9.87L30.48 9.87Q31.35 9.76 32.23 9.66L32.23 9.66L32.23 9.66Q33.12 9.56 33.81 9.52L33.81 9.52L33.81 9.52Q34.06 8.79 34.34 8.10L34.34 8.10L34.34 8.10Q34.61 7.41 34.87 6.83L34.87 6.83L34.87 6.83Q35.14 6.26 35.38 5.82L35.38 5.82L35.38 5.82Q35.63 5.39 35.83 5.18L35.83 5.18L35.83 5.18Q35.97 5.19 36.20 5.29L36.20 5.29L36.20 5.29Q36.43 5.38 36.67 5.50L36.67 5.50L36.67 5.50Q36.90 5.63 37.10 5.78L37.10 5.78L37.10 5.78Q37.30 5.92 37.37 6.05L37.37 6.05L37.37 6.05Q37.11 6.29 36.86 6.66L36.86 6.66L36.86 6.66Q36.61 7.04 36.37 7.53L36.37 7.53L36.37 7.53Q36.12 8.02 35.88 8.60L35.88 8.60L35.88 8.60Q35.64 9.17 35.43 9.79L35.43 9.79L35.43 9.79Q35.71 10.04 35.71 10.42L35.71 10.42L35.71 10.42Q35.71 10.68 35.60 10.91L35.60 10.91L35.60 10.91Q35.48 10.88 35.35 10.87L35.35 10.87L35.35 10.87Q35.22 10.86 35.08 10.85L35.08 10.85L35.08 10.85Q34.85 11.61 34.65 12.35L34.65 12.35L34.65 12.35Q34.45 13.09 34.32 13.76L34.32 13.76L34.32 13.76Q34.19 14.43 34.11 14.99L34.11 14.99L34.11 14.99Q34.03 15.55 34.03 15.93L34.03 15.93L34.03 15.93Q34.03 16.07 34.04 16.16L34.04 16.16L34.04 16.16Q34.05 16.24 34.06 16.30L34.06 16.30L34.06 16.30Q33.75 16.28 33.61 16.19L33.61 16.19L33.61 16.19Q33.47 16.10 33.40 16.00L33.40 16.00L33.40 16.00Q33.33 15.89 33.28 15.79L33.28 15.79L33.28 15.79Q33.22 15.68 33.10 15.62L33.10 15.62L33.10 15.62Q33.00 15.58 32.91 15.43L32.91 15.43L32.91 15.43Q32.83 15.27 32.77 15.08L32.77 15.08L32.77 15.08Q32.72 14.88 32.69 14.69L32.69 14.69L32.69 14.69Q32.66 14.49 32.66 14.36ZM44.28 16.24L44.28 16.24L44.28 16.24Q43.61 16.04 43.35 15.85L43.35 15.85L43.35 15.85Q43.09 15.65 43.09 15.36L43.09 15.36L43.09 15.36Q43.09 15.13 43.22 14.73L43.22 14.73L43.22 14.73Q43.34 14.32 43.59 13.77L43.59 13.77L43.59 13.77Q43.83 13.22 44.18 12.54L44.18 12.54L44.18 12.54Q44.52 11.87 44.95 11.10L44.95 11.10L44.95 11.10Q44.59 11.09 44.30 11.08L44.30 11.08L44.30 11.08Q44.02 11.07 43.83 11.07L43.83 11.07L43.83 11.07Q43.92 10.86 44.31 10.71L44.31 10.71L44.31 10.71Q44.70 10.56 45.35 10.44L45.35 10.44L45.35 10.44Q45.89 9.53 46.52 8.71L46.52 8.71L46.52 8.71Q47.14 7.88 47.77 7.19L47.77 7.19L47.77 7.19Q48.40 6.50 49.03 5.97L49.03 5.97L49.03 5.97Q49.66 5.45 50.23 5.14L50.23 5.14L50.23 5.14Q50.25 5.04 50.25 4.97L50.25 4.97L50.25 4.97Q50.26 4.90 50.26 4.87L50.26 4.87L50.26 4.87Q50.46 4.87 50.78 4.97L50.78 4.97L50.78 4.97Q51.11 5.07 51.43 5.21L51.43 5.21L51.43 5.21Q51.74 5.35 51.99 5.49L51.99 5.49L51.99 5.49Q52.23 5.64 52.26 5.74L52.26 5.74L52.26 5.74Q51.80 6.55 51.35 8.17L51.35 8.17L51.35 8.17Q50.90 9.79 50.61 12.04L50.61 12.04L50.61 12.04Q50.54 12.60 50.49 13.31L50.49 13.31L50.49 13.31Q50.44 14.03 50.44 14.91L50.44 14.91L50.44 14.91Q50.44 15.22 50.44 15.54L50.44 15.54L50.44 15.54Q50.44 15.86 50.47 16.21L50.47 16.21L50.47 16.21Q50.44 16.23 50.41 16.23L50.41 16.23L50.41 16.23Q50.39 16.23 50.30 16.23L50.30 16.23L50.30 16.23Q50.11 16.23 49.85 16.16L49.85 16.16L49.85 16.16Q49.59 16.10 49.34 16.01L49.34 16.01L49.34 16.01Q49.10 15.92 48.92 15.81L48.92 15.81L48.92 15.81Q48.75 15.69 48.71 15.61L48.71 15.61L48.71 15.61Q48.69 15.43 48.69 15.25L48.69 15.25L48.69 15.25Q48.69 15.08 48.69 14.88L48.69 14.88L48.69 14.88Q48.69 14.01 48.76 13.12L48.76 13.12L48.76 13.12Q48.82 12.22 48.97 11.27L48.97 11.27L48.97 11.27Q48.78 11.26 48.45 11.23L48.45 11.23L48.45 11.23Q48.13 11.21 47.73 11.20L47.73 11.20L47.73 11.20Q47.33 11.19 46.88 11.16L46.88 11.16L46.88 11.16Q46.42 11.14 45.99 11.13L45.99 11.13L45.99 11.13Q45.65 11.76 45.36 12.38L45.36 12.38L45.36 12.38Q45.07 13.01 44.86 13.64L44.86 13.64L44.86 13.64Q44.62 14.31 44.47 14.98L44.47 14.98L44.47 14.98Q44.32 15.65 44.28 16.24ZM49.69 7.83L49.69 7.83L49.69 7.83Q49.74 7.63 49.82 7.29L49.82 7.29L49.82 7.29Q49.90 6.94 49.97 6.57L49.97 6.57L49.97 6.57Q49.62 6.69 49.19 7.03L49.19 7.03L49.19 7.03Q48.76 7.36 48.31 7.86L48.31 7.86L48.31 7.86Q47.85 8.36 47.38 8.98L47.38 8.98L47.38 8.98Q46.91 9.60 46.48 10.30L46.48 10.30L46.48 10.30Q47.66 10.21 49.15 10.18L49.15 10.18L49.15 10.18Q49.27 9.59 49.40 9.01L49.40 9.01L49.40 9.01Q49.53 8.43 49.69 7.83ZM65.42 16.21L65.42 16.21L65.42 16.21Q65.39 16.23 65.37 16.23L65.37 16.23L65.37 16.23Q65.34 16.23 65.25 16.23L65.25 16.23L65.25 16.23Q65.06 16.23 64.80 16.16L64.80 16.16L64.80 16.16Q64.54 16.10 64.30 16.01L64.30 16.01L64.30 16.01Q64.05 15.92 63.88 15.81L63.88 15.81L63.88 15.81Q63.70 15.69 63.66 15.61L63.66 15.61L63.66 15.61Q63.64 15.41 63.64 15.20L63.64 15.20L63.64 15.20Q63.64 14.99 63.64 14.80L63.64 14.80L63.64 14.80Q63.64 13.23 63.88 11.52L63.88 11.52L63.88 11.52Q64.11 9.81 64.64 7.83L64.64 7.83L64.64 7.83Q64.69 7.63 64.76 7.33L64.76 7.33L64.76 7.33Q64.82 7.03 64.89 6.68L64.89 6.68L64.89 6.68Q64.55 6.94 64.09 7.53L64.09 7.53L64.09 7.53Q63.63 8.11 63.12 8.90L63.12 8.90L63.12 8.90Q62.61 9.69 62.10 10.63L62.10 10.63L62.10 10.63Q61.59 11.58 61.17 12.55L61.17 12.55L61.17 12.55Q60.75 13.52 60.45 14.48L60.45 14.48L60.45 14.48Q60.14 15.43 60.07 16.24L60.07 16.24L60.07 16.24Q59.40 16.04 59.14 15.85L59.14 15.85L59.14 15.85Q58.88 15.65 58.88 15.37L58.88 15.37L58.88 15.37Q58.88 15.12 59.04 14.66L59.04 14.66L59.04 14.66Q59.19 14.20 59.47 13.57L59.47 13.57L59.47 13.57Q59.75 12.94 60.16 12.16L60.16 12.16L60.16 12.16Q60.56 11.38 61.05 10.49L61.05 10.49L61.05 10.49Q61.61 9.46 62.15 8.57L62.15 8.57L62.15 8.57Q62.69 7.67 63.21 6.94L63.21 6.94L63.21 6.94Q63.73 6.22 64.22 5.68L64.22 5.68L64.22 5.68Q64.72 5.15 65.21 4.87L65.21 4.87L65.21 4.87Q65.41 4.87 65.74 4.97L65.74 4.97L65.74 4.97Q66.07 5.07 66.38 5.21L66.38 5.21L66.38 5.21Q66.70 5.35 66.94 5.49L66.94 5.49L66.94 5.49Q67.19 5.64 67.21 5.74L67.21 5.74L67.21 5.74Q67.02 6.13 66.75 6.92L66.75 6.92L66.75 6.92Q66.49 7.70 66.21 8.69L66.21 8.69L66.21 8.69Q65.94 9.69 65.69 10.80L65.69 10.80L65.69 10.80Q65.45 11.91 65.31 12.94L65.31 12.94L65.31 12.94Q65.63 12.17 66.06 11.33L66.06 11.33L66.06 11.33Q66.49 10.50 66.96 9.68L66.96 9.68L66.96 9.68Q67.44 8.86 67.94 8.09L67.94 8.09L67.94 8.09Q68.43 7.32 68.91 6.69L68.91 6.69L68.91 6.69Q69.38 6.05 69.80 5.57L69.80 5.57L69.80 5.57Q70.21 5.10 70.53 4.87L70.53 4.87L70.53 4.87Q70.73 4.87 71.06 4.97L71.06 4.97L71.06 4.97Q71.39 5.07 71.70 5.21L71.70 5.21L71.70 5.21Q72.02 5.35 72.26 5.49L72.26 5.49L72.26 5.49Q72.51 5.64 72.53 5.74L72.53 5.74L72.53 5.74Q72.09 6.54 71.75 7.69L71.75 7.69L71.75 7.69Q71.41 8.83 71.18 10.09L71.18 10.09L71.18 10.09Q70.95 11.35 70.83 12.59L70.83 12.59L70.83 12.59Q70.71 13.83 70.71 14.81L70.71 14.81L70.71 14.81Q70.71 15.13 70.71 15.48L70.71 15.48L70.71 15.48Q70.71 15.83 70.74 16.21L70.74 16.21L70.74 16.21Q70.55 16.21 70.27 16.16L70.27 16.16L70.27 16.16Q70 16.11 69.74 16.03L69.74 16.03L69.74 16.03Q69.48 15.95 69.27 15.84L69.27 15.84L69.27 15.84Q69.06 15.74 68.98 15.61L68.98 15.61L68.98 15.61Q68.96 15.41 68.96 15.20L68.96 15.20L68.96 15.20Q68.96 14.99 68.96 14.80L68.96 14.80L68.96 14.80Q68.96 13.23 69.19 11.52L69.19 11.52L69.19 11.52Q69.43 9.81 69.96 7.83L69.96 7.83L69.96 7.83Q70.01 7.63 70.08 7.29L70.08 7.29L70.08 7.29Q70.15 6.96 70.22 6.59L70.22 6.59L70.22 6.59Q69.83 6.79 69.33 7.34L69.33 7.34L69.33 7.34Q68.84 7.90 68.33 8.69L68.33 8.69L68.33 8.69Q67.82 9.48 67.32 10.44L67.32 10.44L67.32 10.44Q66.82 11.41 66.42 12.41L66.42 12.41L66.42 12.41Q66.02 13.41 65.75 14.40L65.75 14.40L65.75 14.40Q65.48 15.39 65.42 16.21ZM89.47 7.46L89.47 7.46L89.47 7.46Q89.47 8.33 89.00 9.01L89.00 9.01L89.00 9.01Q88.52 9.69 87.70 10.14L87.70 10.14L87.70 10.14Q88.23 10.50 88.54 11.03L88.54 11.03L88.54 11.03Q88.86 11.55 88.86 12.18L88.86 12.18L88.86 12.18Q88.86 12.94 88.40 13.67L88.40 13.67L88.40 13.67Q87.95 14.41 87.19 14.97L87.19 14.97L87.19 14.97Q86.44 15.54 85.47 15.89L85.47 15.89L85.47 15.89Q84.50 16.24 83.50 16.24L83.50 16.24L83.50 16.24Q82.40 16.24 81.59 15.83L81.59 15.83L81.59 15.83Q80.77 15.41 80.30 14.66L80.30 14.66L80.30 14.66Q80.44 14.24 80.67 13.62L80.67 13.62L80.67 13.62Q80.91 12.99 81.19 12.30L81.19 12.30L81.19 12.30Q81.47 11.61 81.75 10.92L81.75 10.92L81.75 10.92Q82.04 10.23 82.29 9.69L82.29 9.69L82.29 9.69Q82.82 8.50 83.24 7.71L83.24 7.71L83.24 7.71Q83.66 6.93 84.01 6.47L84.01 6.47L84.01 6.47Q83.24 6.71 82.61 7.01L82.61 7.01L82.61 7.01Q81.98 7.31 81.69 7.59L81.69 7.59L81.69 7.59Q81.56 7.50 81.43 7.34L81.43 7.34L81.43 7.34Q81.30 7.17 81.18 6.96L81.18 6.96L81.18 6.96Q81.06 6.76 80.98 6.55L80.98 6.55L80.98 6.55Q80.91 6.34 80.89 6.17L80.89 6.17L80.89 6.17Q81.26 5.92 81.84 5.69L81.84 5.69L81.84 5.69Q82.42 5.46 83.10 5.29L83.10 5.29L83.10 5.29Q83.79 5.12 84.51 5.03L84.51 5.03L84.51 5.03Q85.23 4.93 85.89 4.93L85.89 4.93L85.89 4.93Q87.57 4.93 88.52 5.60L88.52 5.60L88.52 5.60Q89.47 6.27 89.47 7.46ZM84.14 10.81L84.14 10.81L84.14 10.81Q83.87 10.68 83.65 10.43L83.65 10.43L83.65 10.43Q83.33 11.14 83.04 11.83L83.04 11.83L83.04 11.83Q82.75 12.52 82.53 13.10L82.53 13.10L82.53 13.10Q82.31 13.69 82.17 14.13L82.17 14.13L82.17 14.13Q82.03 14.56 82.01 14.76L82.01 14.76L82.01 14.76Q82.21 14.87 82.48 14.92L82.48 14.92L82.48 14.92Q82.75 14.98 83.16 14.98L83.16 14.98L83.16 14.98Q84.11 14.98 84.98 14.71L84.98 14.71L84.98 14.71Q85.85 14.45 86.51 13.99L86.51 13.99L86.51 13.99Q87.16 13.54 87.56 12.95L87.56 12.95L87.56 12.95Q87.95 12.36 87.95 11.72L87.95 11.72L87.95 11.72Q87.95 10.79 87.15 10.39L87.15 10.39L87.15 10.39Q86.06 10.84 84.69 10.84L84.69 10.84L84.69 10.84Q84.49 10.84 84.39 10.84L84.39 10.84L84.39 10.84Q84.28 10.84 84.14 10.81ZM86.86 5.95L86.86 5.95L86.86 5.95Q86.56 5.95 86.23 5.98L86.23 5.98L86.23 5.98Q85.90 6.02 85.54 6.09L85.54 6.09L85.54 6.09Q85.60 6.15 85.63 6.21L85.63 6.21L85.63 6.21Q85.67 6.27 85.69 6.34L85.69 6.34L85.69 6.34Q85.57 6.51 85.39 6.83L85.39 6.83L85.39 6.83Q85.20 7.15 84.98 7.58L84.98 7.58L84.98 7.58Q84.76 8.01 84.51 8.53L84.51 8.53L84.51 8.53Q84.27 9.04 84.01 9.59L84.01 9.59L84.01 9.59Q84.25 9.53 84.59 9.50L84.59 9.50L84.59 9.50Q84.94 9.46 85.27 9.46L85.27 9.46L85.27 9.46Q85.46 9.46 85.63 9.48L85.63 9.48L85.63 9.48Q85.81 9.49 85.97 9.52L85.97 9.52L85.97 9.52Q86.65 9.41 87.19 9.19L87.19 9.19L87.19 9.19Q87.72 8.97 88.12 8.69L88.12 8.69L88.12 8.69Q88.51 8.40 88.72 8.05L88.72 8.05L88.72 8.05Q88.93 7.70 88.93 7.31L88.93 7.31L88.93 7.31Q88.93 6.64 88.40 6.29L88.40 6.29L88.40 6.29Q87.86 5.95 86.86 5.95ZM102.61 9.21L102.61 9.21L102.61 9.21Q103.07 9.21 103.33 9.46L103.33 9.46L103.33 9.46Q103.59 9.72 103.59 10.16L103.59 10.16L103.59 10.16Q103.59 10.28 103.57 10.39L103.57 10.39L103.57 10.39Q103.54 10.51 103.52 10.60L103.52 10.60L103.52 10.60Q103.33 10.57 103.11 10.55L103.11 10.55L103.11 10.55Q102.89 10.53 102.58 10.53L102.58 10.53L102.58 10.53Q101.98 10.53 101.36 10.63L101.36 10.63L101.36 10.63Q100.74 10.74 100.18 10.81L100.18 10.81L100.18 10.81Q99.86 11.55 99.60 12.24L99.60 12.24L99.60 12.24Q99.33 12.94 99.14 13.51L99.14 13.51L99.14 13.51Q98.95 14.08 98.85 14.50L98.85 14.50L98.85 14.50Q98.74 14.92 98.73 15.13L98.73 15.13L98.73 15.13Q99.86 14.90 101.02 14.73L101.02 14.73L101.02 14.73Q102.17 14.56 103.45 14.48L103.45 14.48L103.45 14.48Q103.60 14.71 103.71 14.99L103.71 14.99L103.71 14.99Q103.81 15.27 103.81 15.60L103.81 15.60L103.81 15.60Q103.81 15.68 103.81 15.78L103.81 15.78L103.81 15.78Q103.81 15.88 103.78 15.97L103.78 15.97L103.78 15.97Q103.39 15.96 102.96 15.95L102.96 15.95L102.96 15.95Q102.52 15.95 101.82 15.95L101.82 15.95L101.82 15.95Q101.36 15.95 100.95 15.97L100.95 15.97L100.95 15.97Q100.53 15.99 100.11 16.03L100.11 16.03L100.11 16.03Q99.69 16.07 99.23 16.14L99.23 16.14L99.23 16.14Q98.76 16.21 98.17 16.31L98.17 16.31L98.17 16.31Q97.52 16.06 96.92 15.08L96.92 15.08L96.92 15.08Q97.16 14.57 97.59 13.54L97.59 13.54L97.59 13.54Q98.01 12.52 98.67 10.79L98.67 10.79L98.67 10.79Q98.04 10.60 97.85 10.09L97.85 10.09L97.85 10.09Q97.92 10.02 98.25 9.92L98.25 9.92L98.25 9.92Q98.59 9.81 99.08 9.70L99.08 9.70L99.08 9.70Q99.29 9.16 99.44 8.75L99.44 8.75L99.44 8.75Q99.58 8.34 99.69 7.99L99.69 7.99L99.69 7.99Q99.81 7.63 99.90 7.29L99.90 7.29L99.90 7.29Q99.99 6.94 100.07 6.54L100.07 6.54L100.07 6.54Q99.58 6.51 99.30 6.27L99.30 6.27L99.30 6.27Q99.02 6.02 99.02 5.63L99.02 5.63L99.02 5.63Q99.02 5.52 99.06 5.36L99.06 5.36L99.06 5.36Q99.09 5.21 99.13 5.10L99.13 5.10L99.13 5.10Q99.41 5.14 99.67 5.15L99.67 5.15L99.67 5.15Q99.93 5.17 100.35 5.17L100.35 5.17L100.35 5.17Q101.23 5.17 102.00 5.12L102.00 5.12L102.00 5.12Q102.77 5.07 103.40 5.01L103.40 5.01L103.40 5.01Q104.02 4.96 104.47 4.91L104.47 4.91L104.47 4.91Q104.92 4.86 105.15 4.86L105.15 4.86L105.15 4.86Q105.48 4.86 105.73 5.19L105.73 5.19L105.73 5.19Q105.98 5.53 106.11 6.15L106.11 6.15L106.11 6.15Q105.67 6.10 105.40 6.09L105.40 6.09L105.40 6.09Q105.13 6.08 104.92 6.08L104.92 6.08L104.92 6.08Q104.15 6.08 103.51 6.15L103.51 6.15L103.51 6.15Q102.87 6.23 102.28 6.31L102.28 6.31L102.28 6.31Q102.20 6.44 102.10 6.64L102.10 6.64L102.10 6.64Q101.99 6.83 101.82 7.18L101.82 7.18L101.82 7.18Q101.65 7.53 101.41 8.06L101.41 8.06L101.41 8.06Q101.16 8.60 100.81 9.39L100.81 9.39L100.81 9.39Q101.35 9.31 101.82 9.26L101.82 9.26L101.82 9.26Q102.28 9.21 102.61 9.21ZM121.87 7.46L121.87 7.46L121.87 7.46Q121.87 8.13 121.57 8.73L121.57 8.73L121.57 8.73Q121.27 9.32 120.74 9.79L120.74 9.79L120.74 9.79Q120.20 10.26 119.49 10.58L119.49 10.58L119.49 10.58Q118.78 10.91 117.94 11.02L117.94 11.02L117.94 11.02Q118.15 11.65 118.45 12.31L118.45 12.31L118.45 12.31Q118.75 12.98 119.10 13.59L119.10 13.59L119.10 13.59Q119.45 14.21 119.83 14.73L119.83 14.73L119.83 14.73Q120.20 15.25 120.57 15.58L120.57 15.58L120.57 15.58Q120.50 15.72 120.37 15.86L120.37 15.86L120.37 15.86Q120.23 16.00 120.06 16.12L120.06 16.12L120.06 16.12Q119.88 16.24 119.69 16.32L119.69 16.32L119.69 16.32Q119.50 16.39 119.34 16.39L119.34 16.39L119.34 16.39Q119.03 16.39 118.75 16.10L118.75 16.10L118.75 16.10Q118.47 15.81 118.18 15.17L118.18 15.17L118.18 15.17Q117.89 14.53 117.58 13.52L117.58 13.52L117.58 13.52Q117.26 12.50 116.89 11.07L116.89 11.07L116.89 11.07Q116.73 11.07 116.58 11.07L116.58 11.07L116.58 11.07Q116.42 11.07 116.34 11.05L116.34 11.05L116.34 11.05Q116.24 10.99 116.13 10.85L116.13 10.85L116.13 10.85Q115.75 11.66 115.46 12.38L115.46 12.38L115.46 12.38Q115.16 13.09 114.93 13.76L114.93 13.76L114.93 13.76Q114.70 14.42 114.53 15.04L114.53 15.04L114.53 15.04Q114.35 15.67 114.23 16.31L114.23 16.31L114.23 16.31Q113.75 16.20 113.40 15.90L113.40 15.90L113.40 15.90Q113.05 15.61 112.74 15.08L112.74 15.08L112.74 15.08Q112.80 14.95 112.86 14.83L112.86 14.83L112.86 14.83Q112.92 14.71 113.02 14.50L113.02 14.50L113.02 14.50Q113.12 14.28 113.27 13.94L113.27 13.94L113.27 13.94Q113.41 13.61 113.66 13.05L113.66 13.05L113.66 13.05Q113.90 12.49 114.25 11.68L114.25 11.68L114.25 11.68Q114.59 10.86 115.08 9.70L115.08 9.70L115.08 9.70Q115.30 9.18 115.47 8.79L115.47 8.79L115.47 8.79Q115.63 8.40 115.75 8.04L115.75 8.04L115.75 8.04Q115.88 7.69 115.98 7.33L115.98 7.33L115.98 7.33Q116.09 6.97 116.20 6.51L116.20 6.51L116.20 6.51Q115.56 6.73 115.00 7.01L115.00 7.01L115.00 7.01Q114.45 7.28 114.09 7.59L114.09 7.59L114.09 7.59Q113.96 7.50 113.83 7.34L113.83 7.34L113.83 7.34Q113.69 7.17 113.58 6.96L113.58 6.96L113.58 6.96Q113.47 6.76 113.39 6.55L113.39 6.55L113.39 6.55Q113.30 6.34 113.29 6.17L113.29 6.17L113.29 6.17Q113.71 5.89 114.32 5.66L114.32 5.66L114.32 5.66Q114.93 5.42 115.61 5.24L115.61 5.24L115.61 5.24Q116.30 5.07 117.01 4.97L117.01 4.97L117.01 4.97Q117.73 4.87 118.34 4.87L118.34 4.87L118.34 4.87Q120.02 4.87 120.95 5.56L120.95 5.56L120.95 5.56Q121.87 6.26 121.87 7.46ZM118.29 6.02L118.45 6.29L118.45 6.29Q118.36 6.41 118.15 6.79L118.15 6.79L118.15 6.79Q117.94 7.17 117.66 7.69L117.66 7.69L117.66 7.69Q117.39 8.22 117.09 8.83L117.09 8.83L117.09 8.83Q116.79 9.45 116.51 10.05L116.51 10.05L116.51 10.05Q117.56 10.05 118.44 9.86L118.44 9.86L118.44 9.86Q119.32 9.66 119.97 9.30L119.97 9.30L119.97 9.30Q120.61 8.95 120.97 8.46L120.97 8.46L120.97 8.46Q121.32 7.98 121.32 7.39L121.32 7.39L121.32 7.39Q121.32 6.69 120.82 6.32L120.82 6.32L120.82 6.32Q120.32 5.95 119.27 5.95L119.27 5.95L119.27 5.95Q119.03 5.95 118.79 5.97L118.79 5.97L118.79 5.97Q118.55 5.99 118.29 6.02L118.29 6.02ZM145.81 4.98L145.81 4.98L145.81 4.98Q146.08 5.10 146.36 5.27L146.36 5.27L146.36 5.27Q146.64 5.45 146.87 5.63L146.87 5.63L146.87 5.63Q147.11 5.81 147.27 5.98L147.27 5.98L147.27 5.98Q147.43 6.16 147.45 6.27L147.45 6.27L147.45 6.27Q147.21 6.22 146.97 6.20L146.97 6.20L146.97 6.20Q146.73 6.17 146.54 6.17L146.54 6.17L146.54 6.17Q145.91 6.17 145.28 6.48L145.28 6.48L145.28 6.48Q144.66 6.79 144.10 7.32L144.10 7.32L144.10 7.32Q143.54 7.85 143.07 8.57L143.07 8.57L143.07 8.57Q142.59 9.28 142.25 10.09L142.25 10.09L142.25 10.09Q141.90 10.91 141.71 11.77L141.71 11.77L141.71 11.77Q141.51 12.64 141.51 13.48L141.51 13.48L141.51 13.48Q141.51 14.57 141.88 15.11L141.88 15.11L141.88 15.11Q142.24 15.64 142.94 15.64L142.94 15.64L142.94 15.64Q143.28 15.64 143.67 15.51L143.67 15.51L143.67 15.51Q144.06 15.37 144.47 15.13L144.47 15.13L144.47 15.13Q144.87 14.90 145.26 14.56L145.26 14.56L145.26 14.56Q145.66 14.22 145.99 13.82L145.99 13.82L145.99 13.82Q146.48 13.23 146.87 12.48L146.87 12.48L146.87 12.48Q147.27 11.73 147.54 10.89L147.54 10.89L147.54 10.89Q147.81 10.05 147.96 9.16L147.96 9.16L147.96 9.16Q148.11 8.27 148.11 7.42L148.11 7.42L148.11 7.42Q148.11 7.08 148.09 6.85L148.09 6.85L148.09 6.85Q148.08 6.62 148.06 6.46L148.06 6.46L148.06 6.46Q148.04 6.30 148.02 6.20L148.02 6.20L148.02 6.20Q148.01 6.10 147.99 6.03L147.99 6.03L147.99 6.03Q148.16 6.12 148.37 6.24L148.37 6.24L148.37 6.24Q148.57 6.36 148.74 6.59L148.74 6.59L148.74 6.59Q148.92 6.82 149.04 7.20L149.04 7.20L149.04 7.20Q149.16 7.57 149.16 8.18L149.16 8.18L149.16 8.18Q149.16 9.16 148.93 10.10L148.93 10.10L148.93 10.10Q148.69 11.05 148.28 11.90L148.28 11.90L148.28 11.90Q147.87 12.75 147.31 13.50L147.31 13.50L147.31 13.50Q146.75 14.24 146.10 14.80L146.10 14.80L146.10 14.80Q145.26 15.54 144.31 15.95L144.31 15.95L144.31 15.95Q143.36 16.35 142.48 16.35L142.48 16.35L142.48 16.35Q141.19 16.35 140.51 15.53L140.51 15.53L140.51 15.53Q139.83 14.71 139.83 13.12L139.83 13.12L139.83 13.12Q139.83 12.26 140.02 11.31L140.02 11.31L140.02 11.31Q140.21 10.36 140.55 9.44L140.55 9.44L140.55 9.44Q140.90 8.51 141.37 7.68L141.37 7.68L141.37 7.68Q141.85 6.85 142.42 6.21L142.42 6.21L142.42 6.21Q142.98 5.57 143.63 5.19L143.63 5.19L143.63 5.19Q144.28 4.82 144.97 4.82L144.97 4.82L144.97 4.82Q145.19 4.82 145.39 4.85L145.39 4.85L145.39 4.85Q145.59 4.89 145.81 4.98ZM162.34 9.34L162.34 9.34L162.34 9.34Q162.79 9.34 163.05 9.59L163.05 9.59L163.05 9.59Q163.31 9.84 163.31 10.29L163.31 10.29L163.31 10.29Q163.31 10.40 163.30 10.52L163.30 10.52L163.30 10.52Q163.28 10.64 163.24 10.72L163.24 10.72L163.24 10.72Q163.06 10.70 162.83 10.68L162.83 10.68L162.83 10.68Q162.61 10.65 162.30 10.65L162.30 10.65L162.30 10.65Q161.67 10.65 161.04 10.77L161.04 10.77L161.04 10.77Q160.41 10.88 159.84 10.95L159.84 10.95L159.84 10.95Q159.21 12.43 158.80 13.73L158.80 13.73L158.80 13.73Q158.40 15.04 158.17 16.31L158.17 16.31L158.17 16.31Q157.70 16.20 157.33 15.90L157.33 15.90L157.33 15.90Q156.97 15.61 156.65 15.08L156.65 15.08L156.65 15.08Q156.74 14.85 156.88 14.54L156.88 14.54L156.88 14.54Q157.02 14.22 157.22 13.74L157.22 13.74L157.22 13.74Q157.42 13.26 157.69 12.56L157.69 12.56L157.69 12.56Q157.96 11.87 158.34 10.91L158.34 10.91L158.34 10.91Q157.75 10.71 157.57 10.22L157.57 10.22L157.57 10.22Q157.64 10.15 157.96 10.06L157.96 10.06L157.96 10.06Q158.28 9.97 158.75 9.86L158.75 9.86L158.75 9.86Q158.96 9.31 159.11 8.88L159.11 8.88L159.11 8.88Q159.26 8.46 159.39 8.07L159.39 8.07L159.39 8.07Q159.52 7.69 159.62 7.32L159.62 7.32L159.62 7.32Q159.73 6.94 159.81 6.52L159.81 6.52L159.74 6.52L159.74 6.52Q159.21 6.52 158.88 6.27L158.88 6.27L158.88 6.27Q158.55 6.02 158.55 5.61L158.55 5.61L158.55 5.61Q158.55 5.50 158.59 5.35L158.59 5.35L158.59 5.35Q158.62 5.19 158.68 5.08L158.68 5.08L158.68 5.08Q158.94 5.12 159.20 5.14L159.20 5.14L159.20 5.14Q159.46 5.15 159.88 5.15L159.88 5.15L159.88 5.15Q160.76 5.15 161.53 5.10L161.53 5.10L161.53 5.10Q162.30 5.05 162.93 5.00L162.93 5.00L162.93 5.00Q163.55 4.94 164.00 4.89L164.00 4.89L164.00 4.89Q164.44 4.84 164.68 4.84L164.68 4.84L164.68 4.84Q165.00 4.84 165.26 5.18L165.26 5.18L165.26 5.18Q165.51 5.52 165.65 6.13L165.65 6.13L165.65 6.13Q165.20 6.09 164.93 6.08L164.93 6.08L164.93 6.08Q164.65 6.06 164.44 6.06L164.44 6.06L164.44 6.06Q163.73 6.06 163.14 6.13L163.14 6.13L163.14 6.13Q162.54 6.19 162.01 6.27L162.01 6.27L162.01 6.27Q161.92 6.40 161.82 6.59L161.82 6.59L161.82 6.59Q161.71 6.79 161.55 7.15L161.55 7.15L161.55 7.15Q161.38 7.50 161.12 8.08L161.12 8.08L161.12 8.08Q160.86 8.65 160.47 9.53L160.47 9.53L160.47 9.53Q161.01 9.45 161.51 9.39L161.51 9.39L161.51 9.39Q162.01 9.34 162.34 9.34ZM182.10 12.43L182.10 12.43L182.10 12.43Q182.10 11.45 182.33 10.51L182.33 10.51L182.33 10.51Q182.56 9.56 182.98 8.71L182.98 8.71L182.98 8.71Q183.40 7.87 183.98 7.16L183.98 7.16L183.98 7.16Q184.56 6.45 185.26 5.94L185.26 5.94L185.26 5.94Q185.95 5.42 186.73 5.13L186.73 5.13L186.73 5.13Q187.52 4.84 188.34 4.84L188.34 4.84L188.34 4.84Q189.31 4.84 189.85 5.25L189.85 5.25L189.85 5.25Q190.39 5.66 190.39 6.38L190.39 6.38L190.39 6.38Q190.39 6.66 190.31 6.96L190.31 6.96L190.31 6.96Q190.23 7.25 190.09 7.54L190.09 7.54L190.09 7.54Q189.94 7.83 189.74 8.09L189.74 8.09L189.74 8.09Q189.55 8.36 189.31 8.55L189.31 8.55L189.31 8.55Q188.94 8.50 188.68 8.22L188.68 8.22L188.68 8.22Q188.41 7.95 188.34 7.59L188.34 7.59L188.34 7.59Q188.83 7.18 189.12 6.74L189.12 6.74L189.12 6.74Q189.41 6.30 189.41 5.94L189.41 5.94L189.41 5.94Q189.41 5.32 188.64 5.32L188.64 5.32L188.64 5.32Q188.31 5.32 187.97 5.45L187.97 5.45L187.97 5.45Q187.63 5.59 187.28 5.82L187.28 5.82L187.28 5.82Q186.93 6.06 186.60 6.40L186.60 6.40L186.60 6.40Q186.27 6.73 185.99 7.14L185.99 7.14L185.99 7.14Q184.04 9.94 184.04 12.87L184.04 12.87L184.04 12.87Q184.04 13.90 184.37 14.53L184.37 14.53L184.37 14.53Q184.69 15.16 185.22 15.27L185.22 15.27L185.22 15.27Q185.82 15.13 186.75 14.50L186.75 14.50L186.75 14.50Q187.67 13.87 188.76 12.87L188.76 12.87L188.76 12.87Q188.90 13.01 188.93 13.16L188.93 13.16L188.93 13.16Q188.52 13.69 188.09 14.18L188.09 14.18L188.09 14.18Q187.66 14.67 187.23 15.08L187.23 15.08L187.23 15.08Q186.80 15.48 186.39 15.79L186.39 15.79L186.39 15.79Q185.98 16.10 185.63 16.27L185.63 16.27L185.63 16.27Q183.89 16.24 182.99 15.27L182.99 15.27L182.99 15.27Q182.10 14.31 182.10 12.43ZM203.43 4.98L203.43 4.98L203.43 4.98Q203.70 5.10 203.98 5.27L203.98 5.27L203.98 5.27Q204.26 5.45 204.50 5.63L204.50 5.63L204.50 5.63Q204.74 5.81 204.90 5.98L204.90 5.98L204.90 5.98Q205.06 6.16 205.07 6.27L205.07 6.27L205.07 6.27Q204.83 6.22 204.60 6.20L204.60 6.20L204.60 6.20Q204.36 6.17 204.16 6.17L204.16 6.17L204.16 6.17Q203.53 6.17 202.91 6.48L202.91 6.48L202.91 6.48Q202.29 6.79 201.73 7.32L201.73 7.32L201.73 7.32Q201.17 7.85 200.69 8.57L200.69 8.57L200.69 8.57Q200.21 9.28 199.87 10.09L199.87 10.09L199.87 10.09Q199.53 10.91 199.33 11.77L199.33 11.77L199.33 11.77Q199.14 12.64 199.14 13.48L199.14 13.48L199.14 13.48Q199.14 14.57 199.50 15.11L199.50 15.11L199.50 15.11Q199.86 15.64 200.56 15.64L200.56 15.64L200.56 15.64Q200.90 15.64 201.29 15.51L201.29 15.51L201.29 15.51Q201.68 15.37 202.09 15.13L202.09 15.13L202.09 15.13Q202.50 14.90 202.89 14.56L202.89 14.56L202.89 14.56Q203.28 14.22 203.62 13.82L203.62 13.82L203.62 13.82Q204.11 13.23 204.50 12.48L204.50 12.48L204.50 12.48Q204.89 11.73 205.16 10.89L205.16 10.89L205.16 10.89Q205.44 10.05 205.58 9.16L205.58 9.16L205.58 9.16Q205.73 8.27 205.73 7.42L205.73 7.42L205.73 7.42Q205.73 7.08 205.72 6.85L205.72 6.85L205.72 6.85Q205.70 6.62 205.68 6.46L205.68 6.46L205.68 6.46Q205.66 6.30 205.65 6.20L205.65 6.20L205.65 6.20Q205.63 6.10 205.62 6.03L205.62 6.03L205.62 6.03Q205.79 6.12 205.99 6.24L205.99 6.24L205.99 6.24Q206.19 6.36 206.37 6.59L206.37 6.59L206.37 6.59Q206.54 6.82 206.66 7.20L206.66 7.20L206.66 7.20Q206.78 7.57 206.78 8.18L206.78 8.18L206.78 8.18Q206.78 9.16 206.55 10.10L206.55 10.10L206.55 10.10Q206.32 11.05 205.91 11.90L205.91 11.90L205.91 11.90Q205.49 12.75 204.93 13.50L204.93 13.50L204.93 13.50Q204.37 14.24 203.73 14.80L203.73 14.80L203.73 14.80Q202.89 15.54 201.94 15.95L201.94 15.95L201.94 15.95Q200.98 16.35 200.10 16.35L200.10 16.35L200.10 16.35Q198.81 16.35 198.13 15.53L198.13 15.53L198.13 15.53Q197.46 14.71 197.46 13.12L197.46 13.12L197.46 13.12Q197.46 12.26 197.65 11.31L197.65 11.31L197.65 11.31Q197.83 10.36 198.18 9.44L198.18 9.44L198.18 9.44Q198.52 8.51 199.00 7.68L199.00 7.68L199.00 7.68Q199.47 6.85 200.04 6.21L200.04 6.21L200.04 6.21Q200.61 5.57 201.26 5.19L201.26 5.19L201.26 5.19Q201.91 4.82 202.59 4.82L202.59 4.82L202.59 4.82Q202.82 4.82 203.01 4.85L203.01 4.85L203.01 4.85Q203.21 4.89 203.43 4.98ZM219.88 16.21L219.88 16.21L219.88 16.21Q219.86 16.23 219.83 16.23L219.83 16.23L219.83 16.23Q219.80 16.23 219.72 16.23L219.72 16.23L219.72 16.23Q219.52 16.23 219.26 16.16L219.26 16.16L219.26 16.16Q219.00 16.10 218.76 16.01L218.76 16.01L218.76 16.01Q218.51 15.92 218.34 15.81L218.34 15.81L218.34 15.81Q218.16 15.69 218.12 15.61L218.12 15.61L218.12 15.61Q218.11 15.41 218.11 15.20L218.11 15.20L218.11 15.20Q218.11 14.99 218.11 14.80L218.11 14.80L218.11 14.80Q218.11 13.23 218.34 11.52L218.34 11.52L218.34 11.52Q218.57 9.81 219.10 7.83L219.10 7.83L219.10 7.83Q219.16 7.63 219.22 7.33L219.22 7.33L219.22 7.33Q219.28 7.03 219.35 6.68L219.35 6.68L219.35 6.68Q219.02 6.94 218.55 7.53L218.55 7.53L218.55 7.53Q218.09 8.11 217.58 8.90L217.58 8.90L217.58 8.90Q217.07 9.69 216.56 10.63L216.56 10.63L216.56 10.63Q216.05 11.58 215.63 12.55L215.63 12.55L215.63 12.55Q215.21 13.52 214.91 14.48L214.91 14.48L214.91 14.48Q214.61 15.43 214.54 16.24L214.54 16.24L214.54 16.24Q213.86 16.04 213.60 15.85L213.60 15.85L213.60 15.85Q213.35 15.65 213.35 15.37L213.35 15.37L213.35 15.37Q213.35 15.12 213.50 14.66L213.50 14.66L213.50 14.66Q213.65 14.20 213.93 13.57L213.93 13.57L213.93 13.57Q214.21 12.94 214.62 12.16L214.62 12.16L214.62 12.16Q215.03 11.38 215.52 10.49L215.52 10.49L215.52 10.49Q216.08 9.46 216.61 8.57L216.61 8.57L216.61 8.57Q217.15 7.67 217.67 6.94L217.67 6.94L217.67 6.94Q218.19 6.22 218.69 5.68L218.69 5.68L218.69 5.68Q219.18 5.15 219.67 4.87L219.67 4.87L219.67 4.87Q219.87 4.87 220.20 4.97L220.20 4.97L220.20 4.97Q220.53 5.07 220.84 5.21L220.84 5.21L220.84 5.21Q221.16 5.35 221.40 5.49L221.40 5.49L221.40 5.49Q221.65 5.64 221.68 5.74L221.68 5.74L221.68 5.74Q221.48 6.13 221.21 6.92L221.21 6.92L221.21 6.92Q220.95 7.70 220.67 8.69L220.67 8.69L220.67 8.69Q220.40 9.69 220.16 10.80L220.16 10.80L220.16 10.80Q219.91 11.91 219.77 12.94L219.77 12.94L219.77 12.94Q220.09 12.17 220.52 11.33L220.52 11.33L220.52 11.33Q220.95 10.50 221.42 9.68L221.42 9.68L221.42 9.68Q221.90 8.86 222.40 8.09L222.40 8.09L222.40 8.09Q222.89 7.32 223.37 6.69L223.37 6.69L223.37 6.69Q223.85 6.05 224.26 5.57L224.26 5.57L224.26 5.57Q224.67 5.10 224.99 4.87L224.99 4.87L224.99 4.87Q225.19 4.87 225.52 4.97L225.52 4.97L225.52 4.97Q225.85 5.07 226.16 5.21L226.16 5.21L226.16 5.21Q226.48 5.35 226.72 5.49L226.72 5.49L226.72 5.49Q226.97 5.64 227.00 5.74L227.00 5.74L227.00 5.74Q226.55 6.54 226.21 7.69L226.21 7.69L226.21 7.69Q225.88 8.83 225.64 10.09L225.64 10.09L225.64 10.09Q225.41 11.35 225.29 12.59L225.29 12.59L225.29 12.59Q225.18 13.83 225.18 14.81L225.18 14.81L225.18 14.81Q225.18 15.13 225.18 15.48L225.18 15.48L225.18 15.48Q225.18 15.83 225.20 16.21L225.20 16.21L225.20 16.21Q225.01 16.21 224.73 16.16L224.73 16.16L224.73 16.16Q224.46 16.11 224.20 16.03L224.20 16.03L224.20 16.03Q223.94 15.95 223.73 15.84L223.73 15.84L223.73 15.84Q223.52 15.74 223.44 15.61L223.44 15.61L223.44 15.61Q223.43 15.41 223.43 15.20L223.43 15.20L223.43 15.20Q223.43 14.99 223.43 14.80L223.43 14.80L223.43 14.80Q223.43 13.23 223.66 11.52L223.66 11.52L223.66 11.52Q223.89 9.81 224.42 7.83L224.42 7.83L224.42 7.83Q224.48 7.63 224.55 7.29L224.55 7.29L224.55 7.29Q224.62 6.96 224.69 6.59L224.69 6.59L224.69 6.59Q224.29 6.79 223.80 7.34L223.80 7.34L223.80 7.34Q223.30 7.90 222.79 8.69L222.79 8.69L222.79 8.69Q222.28 9.48 221.78 10.44L221.78 10.44L221.78 10.44Q221.28 11.41 220.88 12.41L220.88 12.41L220.88 12.41Q220.49 13.41 220.21 14.40L220.21 14.40L220.21 14.40Q219.94 15.39 219.88 16.21ZM240.07 16.21L240.07 16.21L240.07 16.21Q240.04 16.23 240.02 16.23L240.02 16.23L240.02 16.23Q239.99 16.23 239.90 16.23L239.90 16.23L239.90 16.23Q239.71 16.23 239.45 16.16L239.45 16.16L239.45 16.16Q239.19 16.10 238.94 16.01L238.94 16.01L238.94 16.01Q238.70 15.92 238.52 15.81L238.52 15.81L238.52 15.81Q238.35 15.69 238.31 15.61L238.31 15.61L238.31 15.61Q238.29 15.41 238.29 15.20L238.29 15.20L238.29 15.20Q238.29 14.99 238.29 14.80L238.29 14.80L238.29 14.80Q238.29 13.23 238.52 11.52L238.52 11.52L238.52 11.52Q238.76 9.81 239.29 7.83L239.29 7.83L239.29 7.83Q239.34 7.63 239.41 7.33L239.41 7.33L239.41 7.33Q239.47 7.03 239.54 6.68L239.54 6.68L239.54 6.68Q239.20 6.94 238.74 7.53L238.74 7.53L238.74 7.53Q238.28 8.11 237.77 8.90L237.77 8.90L237.77 8.90Q237.26 9.69 236.75 10.63L236.75 10.63L236.75 10.63Q236.24 11.58 235.82 12.55L235.82 12.55L235.82 12.55Q235.40 13.52 235.09 14.48L235.09 14.48L235.09 14.48Q234.79 15.43 234.72 16.24L234.72 16.24L234.72 16.24Q234.05 16.04 233.79 15.85L233.79 15.85L233.79 15.85Q233.53 15.65 233.53 15.37L233.53 15.37L233.53 15.37Q233.53 15.12 233.69 14.66L233.69 14.66L233.69 14.66Q233.84 14.20 234.12 13.57L234.12 13.57L234.12 13.57Q234.40 12.94 234.81 12.16L234.81 12.16L234.81 12.16Q235.21 11.38 235.70 10.49L235.70 10.49L235.70 10.49Q236.26 9.46 236.80 8.57L236.80 8.57L236.80 8.57Q237.34 7.67 237.86 6.94L237.86 6.94L237.86 6.94Q238.38 6.22 238.87 5.68L238.87 5.68L238.87 5.68Q239.37 5.15 239.86 4.87L239.86 4.87L239.86 4.87Q240.06 4.87 240.39 4.97L240.39 4.97L240.39 4.97Q240.72 5.07 241.03 5.21L241.03 5.21L241.03 5.21Q241.35 5.35 241.59 5.49L241.59 5.49L241.59 5.49Q241.84 5.64 241.86 5.74L241.86 5.74L241.86 5.74Q241.67 6.13 241.40 6.92L241.40 6.92L241.40 6.92Q241.14 7.70 240.86 8.69L240.86 8.69L240.86 8.69Q240.59 9.69 240.34 10.80L240.34 10.80L240.34 10.80Q240.10 11.91 239.96 12.94L239.96 12.94L239.96 12.94Q240.28 12.17 240.71 11.33L240.71 11.33L240.71 11.33Q241.14 10.50 241.61 9.68L241.61 9.68L241.61 9.68Q242.09 8.86 242.58 8.09L242.58 8.09L242.58 8.09Q243.08 7.32 243.56 6.69L243.56 6.69L243.56 6.69Q244.03 6.05 244.45 5.57L244.45 5.57L244.45 5.57Q244.86 5.10 245.18 4.87L245.18 4.87L245.18 4.87Q245.38 4.87 245.71 4.97L245.71 4.97L245.71 4.97Q246.04 5.07 246.35 5.21L246.35 5.21L246.35 5.21Q246.67 5.35 246.91 5.49L246.91 5.49L246.91 5.49Q247.16 5.64 247.18 5.74L247.18 5.74L247.18 5.74Q246.74 6.54 246.40 7.69L246.40 7.69L246.40 7.69Q246.06 8.83 245.83 10.09L245.83 10.09L245.83 10.09Q245.60 11.35 245.48 12.59L245.48 12.59L245.48 12.59Q245.36 13.83 245.36 14.81L245.36 14.81L245.36 14.81Q245.36 15.13 245.36 15.48L245.36 15.48L245.36 15.48Q245.36 15.83 245.39 16.21L245.39 16.21L245.39 16.21Q245.20 16.21 244.92 16.16L244.92 16.16L244.92 16.16Q244.65 16.11 244.39 16.03L244.39 16.03L244.39 16.03Q244.13 15.95 243.92 15.84L243.92 15.84L243.92 15.84Q243.71 15.74 243.63 15.61L243.63 15.61L243.63 15.61Q243.61 15.41 243.61 15.20L243.61 15.20L243.61 15.20Q243.61 14.99 243.61 14.80L243.61 14.80L243.61 14.80Q243.61 13.23 243.84 11.52L243.84 11.52L243.84 11.52Q244.08 9.81 244.61 7.83L244.61 7.83L244.61 7.83Q244.66 7.63 244.73 7.29L244.73 7.29L244.73 7.29Q244.80 6.96 244.87 6.59L244.87 6.59L244.87 6.59Q244.48 6.79 243.98 7.34L243.98 7.34L243.98 7.34Q243.49 7.90 242.98 8.69L242.98 8.69L242.98 8.69Q242.47 9.48 241.97 10.44L241.97 10.44L241.97 10.44Q241.47 11.41 241.07 12.41L241.07 12.41L241.07 12.41Q240.67 13.41 240.40 14.40L240.40 14.40L240.40 14.40Q240.13 15.39 240.07 16.21ZM260.13 9.21L260.13 9.21L260.13 9.21Q260.60 9.21 260.85 9.46L260.85 9.46L260.85 9.46Q261.11 9.72 261.11 10.16L261.11 10.16L261.11 10.16Q261.11 10.28 261.09 10.39L261.09 10.39L261.09 10.39Q261.07 10.51 261.04 10.60L261.04 10.60L261.04 10.60Q260.86 10.57 260.64 10.55L260.64 10.55L260.64 10.55Q260.41 10.53 260.11 10.53L260.11 10.53L260.11 10.53Q259.50 10.53 258.89 10.63L258.89 10.63L258.89 10.63Q258.27 10.74 257.71 10.81L257.71 10.81L257.71 10.81Q257.39 11.55 257.12 12.24L257.12 12.24L257.12 12.24Q256.86 12.94 256.67 13.51L256.67 13.51L256.67 13.51Q256.48 14.08 256.37 14.50L256.37 14.50L256.37 14.50Q256.27 14.92 256.26 15.13L256.26 15.13L256.26 15.13Q257.39 14.90 258.54 14.73L258.54 14.73L258.54 14.73Q259.70 14.56 260.97 14.48L260.97 14.48L260.97 14.48Q261.13 14.71 261.23 14.99L261.23 14.99L261.23 14.99Q261.34 15.27 261.34 15.60L261.34 15.60L261.34 15.60Q261.34 15.68 261.34 15.78L261.34 15.78L261.34 15.78Q261.34 15.88 261.31 15.97L261.31 15.97L261.31 15.97Q260.92 15.96 260.48 15.95L260.48 15.95L260.48 15.95Q260.05 15.95 259.35 15.95L259.35 15.95L259.35 15.95Q258.89 15.95 258.47 15.97L258.47 15.97L258.47 15.97Q258.06 15.99 257.64 16.03L257.64 16.03L257.64 16.03Q257.22 16.07 256.75 16.14L256.75 16.14L256.75 16.14Q256.28 16.21 255.70 16.31L255.70 16.31L255.70 16.31Q255.05 16.06 254.45 15.08L254.45 15.08L254.45 15.08Q254.69 14.57 255.11 13.54L255.11 13.54L255.11 13.54Q255.54 12.52 256.20 10.79L256.20 10.79L256.20 10.79Q255.57 10.60 255.37 10.09L255.37 10.09L255.37 10.09Q255.44 10.02 255.78 9.92L255.78 9.92L255.78 9.92Q256.12 9.81 256.61 9.70L256.61 9.70L256.61 9.70Q256.82 9.16 256.96 8.75L256.96 8.75L256.96 8.75Q257.11 8.34 257.22 7.99L257.22 7.99L257.22 7.99Q257.33 7.63 257.42 7.29L257.42 7.29L257.42 7.29Q257.52 6.94 257.60 6.54L257.60 6.54L257.60 6.54Q257.11 6.51 256.83 6.27L256.83 6.27L256.83 6.27Q256.55 6.02 256.55 5.63L256.55 5.63L256.55 5.63Q256.55 5.52 256.58 5.36L256.58 5.36L256.58 5.36Q256.62 5.21 256.66 5.10L256.66 5.10L256.66 5.10Q256.94 5.14 257.20 5.15L257.20 5.15L257.20 5.15Q257.46 5.17 257.88 5.17L257.88 5.17L257.88 5.17Q258.76 5.17 259.53 5.12L259.53 5.12L259.53 5.12Q260.30 5.07 260.92 5.01L260.92 5.01L260.92 5.01Q261.55 4.96 262.00 4.91L262.00 4.91L262.00 4.91Q262.44 4.86 262.68 4.86L262.68 4.86L262.68 4.86Q263.00 4.86 263.26 5.19L263.26 5.19L263.26 5.19Q263.51 5.53 263.63 6.15L263.63 6.15L263.63 6.15Q263.20 6.10 262.93 6.09L262.93 6.09L262.93 6.09Q262.65 6.08 262.44 6.08L262.44 6.08L262.44 6.08Q261.67 6.08 261.04 6.15L261.04 6.15L261.04 6.15Q260.40 6.23 259.81 6.31L259.81 6.31L259.81 6.31Q259.73 6.44 259.62 6.64L259.62 6.64L259.62 6.64Q259.52 6.83 259.35 7.18L259.35 7.18L259.35 7.18Q259.18 7.53 258.94 8.06L258.94 8.06L258.94 8.06Q258.69 8.60 258.34 9.39L258.34 9.39L258.34 9.39Q258.87 9.31 259.34 9.26L259.34 9.26L259.34 9.26Q259.81 9.21 260.13 9.21ZM279.40 7.46L279.40 7.46L279.40 7.46Q279.40 8.13 279.10 8.73L279.10 8.73L279.10 8.73Q278.80 9.32 278.26 9.79L278.26 9.79L278.26 9.79Q277.73 10.26 277.02 10.58L277.02 10.58L277.02 10.58Q276.30 10.91 275.46 11.02L275.46 11.02L275.46 11.02Q275.67 11.65 275.97 12.31L275.97 12.31L275.97 12.31Q276.28 12.98 276.63 13.59L276.63 13.59L276.63 13.59Q276.98 14.21 277.35 14.73L277.35 14.73L277.35 14.73Q277.73 15.25 278.10 15.58L278.10 15.58L278.10 15.58Q278.03 15.72 277.89 15.86L277.89 15.86L277.89 15.86Q277.76 16.00 277.58 16.12L277.58 16.12L277.58 16.12Q277.41 16.24 277.22 16.32L277.22 16.32L277.22 16.32Q277.03 16.39 276.86 16.39L276.86 16.39L276.86 16.39Q276.56 16.39 276.28 16.10L276.28 16.10L276.28 16.10Q276.00 15.81 275.71 15.17L275.71 15.17L275.71 15.17Q275.42 14.53 275.11 13.52L275.11 13.52L275.11 13.52Q274.79 12.50 274.41 11.07L274.41 11.07L274.41 11.07Q274.26 11.07 274.11 11.07L274.11 11.07L274.11 11.07Q273.95 11.07 273.87 11.05L273.87 11.05L273.87 11.05Q273.77 10.99 273.66 10.85L273.66 10.85L273.66 10.85Q273.28 11.66 272.99 12.38L272.99 12.38L272.99 12.38Q272.69 13.09 272.46 13.76L272.46 13.76L272.46 13.76Q272.23 14.42 272.05 15.04L272.05 15.04L272.05 15.04Q271.88 15.67 271.75 16.31L271.75 16.31L271.75 16.31Q271.28 16.20 270.93 15.90L270.93 15.90L270.93 15.90Q270.58 15.61 270.27 15.08L270.27 15.08L270.27 15.08Q270.33 14.95 270.39 14.83L270.39 14.83L270.39 14.83Q270.45 14.71 270.55 14.50L270.55 14.50L270.55 14.50Q270.65 14.28 270.79 13.94L270.79 13.94L270.79 13.94Q270.94 13.61 271.19 13.05L271.19 13.05L271.19 13.05Q271.43 12.49 271.77 11.68L271.77 11.68L271.77 11.68Q272.12 10.86 272.61 9.70L272.61 9.70L272.61 9.70Q272.83 9.18 272.99 8.79L272.99 8.79L272.99 8.79Q273.15 8.40 273.28 8.04L273.28 8.04L273.28 8.04Q273.41 7.69 273.51 7.33L273.51 7.33L273.51 7.33Q273.62 6.97 273.73 6.51L273.73 6.51L273.73 6.51Q273.08 6.73 272.53 7.01L272.53 7.01L272.53 7.01Q271.98 7.28 271.61 7.59L271.61 7.59L271.61 7.59Q271.49 7.50 271.35 7.34L271.35 7.34L271.35 7.34Q271.22 7.17 271.11 6.96L271.11 6.96L271.11 6.96Q271.00 6.76 270.91 6.55L270.91 6.55L270.91 6.55Q270.83 6.34 270.82 6.17L270.82 6.17L270.82 6.17Q271.24 5.89 271.84 5.66L271.84 5.66L271.84 5.66Q272.45 5.42 273.14 5.24L273.14 5.24L273.14 5.24Q273.83 5.07 274.54 4.97L274.54 4.97L274.54 4.97Q275.25 4.87 275.87 4.87L275.87 4.87L275.87 4.87Q277.55 4.87 278.47 5.56L278.47 5.56L278.47 5.56Q279.40 6.26 279.40 7.46ZM275.81 6.02L275.98 6.29L275.98 6.29Q275.88 6.41 275.67 6.79L275.67 6.79L275.67 6.79Q275.46 7.17 275.19 7.69L275.19 7.69L275.19 7.69Q274.92 8.22 274.62 8.83L274.62 8.83L274.62 8.83Q274.32 9.45 274.04 10.05L274.04 10.05L274.04 10.05Q275.09 10.05 275.97 9.86L275.97 9.86L275.97 9.86Q276.85 9.66 277.49 9.30L277.49 9.30L277.49 9.30Q278.14 8.95 278.49 8.46L278.49 8.46L278.49 8.46Q278.85 7.98 278.85 7.39L278.85 7.39L278.85 7.39Q278.85 6.69 278.35 6.32L278.35 6.32L278.35 6.32Q277.84 5.95 276.79 5.95L276.79 5.95L276.79 5.95Q276.56 5.95 276.32 5.97L276.32 5.97L276.32 5.97Q276.08 5.99 275.81 6.02L275.81 6.02ZM286.99 12.43L286.99 12.43L286.99 12.43Q286.99 11.45 287.22 10.51L287.22 10.51L287.22 10.51Q287.45 9.56 287.87 8.71L287.87 8.71L287.87 8.71Q288.29 7.87 288.87 7.16L288.87 7.16L288.87 7.16Q289.45 6.45 290.14 5.94L290.14 5.94L290.14 5.94Q290.84 5.42 291.62 5.13L291.62 5.13L291.62 5.13Q292.40 4.84 293.23 4.84L293.23 4.84L293.23 4.84Q294.20 4.84 294.73 5.25L294.73 5.25L294.73 5.25Q295.27 5.66 295.27 6.38L295.27 6.38L295.27 6.38Q295.27 6.66 295.20 6.96L295.20 6.96L295.20 6.96Q295.12 7.25 294.97 7.54L294.97 7.54L294.97 7.54Q294.83 7.83 294.63 8.09L294.63 8.09L294.63 8.09Q294.43 8.36 294.20 8.55L294.20 8.55L294.20 8.55Q293.83 8.50 293.57 8.22L293.57 8.22L293.57 8.22Q293.30 7.95 293.23 7.59L293.23 7.59L293.23 7.59Q293.72 7.18 294.01 6.74L294.01 6.74L294.01 6.74Q294.29 6.30 294.29 5.94L294.29 5.94L294.29 5.94Q294.29 5.32 293.52 5.32L293.52 5.32L293.52 5.32Q293.20 5.32 292.86 5.45L292.86 5.45L292.86 5.45Q292.52 5.59 292.17 5.82L292.17 5.82L292.17 5.82Q291.82 6.06 291.49 6.40L291.49 6.40L291.49 6.40Q291.16 6.73 290.88 7.14L290.88 7.14L290.88 7.14Q288.93 9.94 288.93 12.87L288.93 12.87L288.93 12.87Q288.93 13.90 289.25 14.53L289.25 14.53L289.25 14.53Q289.58 15.16 290.11 15.27L290.11 15.27L290.11 15.27Q290.71 15.13 291.63 14.50L291.63 14.50L291.63 14.50Q292.56 13.87 293.65 12.87L293.65 12.87L293.65 12.87Q293.79 13.01 293.82 13.16L293.82 13.16L293.82 13.16Q293.41 13.69 292.98 14.18L292.98 14.18L292.98 14.18Q292.54 14.67 292.12 15.08L292.12 15.08L292.12 15.08Q291.69 15.48 291.28 15.79L291.28 15.79L291.28 15.79Q290.86 16.10 290.51 16.27L290.51 16.27L290.51 16.27Q288.78 16.24 287.88 15.27L287.88 15.27L287.88 15.27Q286.99 14.31 286.99 12.43ZM307.58 9.21L307.58 9.21L307.58 9.21Q308.04 9.21 308.30 9.46L308.30 9.46L308.30 9.46Q308.56 9.72 308.56 10.16L308.56 10.16L308.56 10.16Q308.56 10.28 308.54 10.39L308.54 10.39L308.54 10.39Q308.52 10.51 308.49 10.60L308.49 10.60L308.49 10.60Q308.31 10.57 308.08 10.55L308.08 10.55L308.08 10.55Q307.86 10.53 307.55 10.53L307.55 10.53L307.55 10.53Q306.95 10.53 306.33 10.63L306.33 10.63L306.33 10.63Q305.72 10.74 305.16 10.81L305.16 10.81L305.16 10.81Q304.84 11.55 304.57 12.24L304.57 12.24L304.57 12.24Q304.30 12.94 304.11 13.51L304.11 13.51L304.11 13.51Q303.93 14.08 303.82 14.50L303.82 14.50L303.82 14.50Q303.72 14.92 303.70 15.13L303.70 15.13L303.70 15.13Q304.84 14.90 305.99 14.73L305.99 14.73L305.99 14.73Q307.15 14.56 308.42 14.48L308.42 14.48L308.42 14.48Q308.57 14.71 308.68 14.99L308.68 14.99L308.68 14.99Q308.78 15.27 308.78 15.60L308.78 15.60L308.78 15.60Q308.78 15.68 308.78 15.78L308.78 15.78L308.78 15.78Q308.78 15.88 308.76 15.97L308.76 15.97L308.76 15.97Q308.36 15.96 307.93 15.95L307.93 15.95L307.93 15.95Q307.50 15.95 306.80 15.95L306.80 15.95L306.80 15.95Q306.33 15.95 305.92 15.97L305.92 15.97L305.92 15.97Q305.51 15.99 305.09 16.03L305.09 16.03L305.09 16.03Q304.67 16.07 304.20 16.14L304.20 16.14L304.20 16.14Q303.73 16.21 303.14 16.31L303.14 16.31L303.14 16.31Q302.50 16.06 301.90 15.08L301.90 15.08L301.90 15.08Q302.13 14.57 302.56 13.54L302.56 13.54L302.56 13.54Q302.99 12.52 303.65 10.79L303.65 10.79L303.65 10.79Q303.02 10.60 302.82 10.09L302.82 10.09L302.82 10.09Q302.89 10.02 303.23 9.92L303.23 9.92L303.23 9.92Q303.56 9.81 304.05 9.70L304.05 9.70L304.05 9.70Q304.26 9.16 304.41 8.75L304.41 8.75L304.41 8.75Q304.56 8.34 304.67 7.99L304.67 7.99L304.67 7.99Q304.78 7.63 304.87 7.29L304.87 7.29L304.87 7.29Q304.96 6.94 305.05 6.54L305.05 6.54L305.05 6.54Q304.56 6.51 304.28 6.27L304.28 6.27L304.28 6.27Q304.00 6.02 304.00 5.63L304.00 5.63L304.00 5.63Q304.00 5.52 304.03 5.36L304.03 5.36L304.03 5.36Q304.07 5.21 304.11 5.10L304.11 5.10L304.11 5.10Q304.39 5.14 304.65 5.15L304.65 5.15L304.65 5.15Q304.91 5.17 305.33 5.17L305.33 5.17L305.33 5.17Q306.21 5.17 306.98 5.12L306.98 5.12L306.98 5.12Q307.75 5.07 308.37 5.01L308.37 5.01L308.37 5.01Q308.99 4.96 309.44 4.91L309.44 4.91L309.44 4.91Q309.89 4.86 310.13 4.86L310.13 4.86L310.13 4.86Q310.45 4.86 310.70 5.19L310.70 5.19L310.70 5.19Q310.95 5.53 311.08 6.15L311.08 6.15L311.08 6.15Q310.65 6.10 310.37 6.09L310.37 6.09L310.37 6.09Q310.10 6.08 309.89 6.08L309.89 6.08L309.89 6.08Q309.12 6.08 308.48 6.15L308.48 6.15L308.48 6.15Q307.85 6.23 307.26 6.31L307.26 6.31L307.26 6.31Q307.17 6.44 307.07 6.64L307.07 6.64L307.07 6.64Q306.96 6.83 306.80 7.18L306.80 7.18L306.80 7.18Q306.63 7.53 306.38 8.06L306.38 8.06L306.38 8.06Q306.14 8.60 305.79 9.39L305.79 9.39L305.79 9.39Q306.32 9.31 306.79 9.26L306.79 9.26L306.79 9.26Q307.26 9.21 307.58 9.21Z"></path></g></svg>